<?xml version="1.0" encoding="UTF-8" standalone="no"?>
<svg
   xmlns="http://www.w3.org/2000/svg"
   version="1.2"
   baseProfile="tiny"
   width="1024"
   height="1024">
  <circle
     style="fill:#231f20;fill-opacity:1"
     r="500"
     cy="512"
     cx="512"
     id="path3810" />
  <circle
     r="386"
     cy="512"
     cx="512"
     id="path3812"
     style="fill:#ffffff;fill-opacity:1" />
  <g
     id="layer4"
     style="opacity:1"
     transform="matrix(7.6435833,0,0,7.6435833,-275.61472,-378.31054)">
    <path
       style="opacity:1;fill:#2889e9;fill-opacity:1;stroke:#c80000;stroke-width:1.05833328;stroke-linecap:butt;stroke-linejoin:miter;stroke-miterlimit:4;stroke-dasharray:none;stroke-opacity:1"
       d="m 119.93657,98.491629 c 0,0 -1.63002,0.897691 -2.26786,1.511901 -0.63783,0.61421 -3.09468,2.78758 -3.33091,3.07106 -0.23624,0.28348 -2.52772,2.07887 -2.69308,2.33873 -0.16537,0.25985 -2.88207,3.49628 -3.11831,3.85063 -0.23623,0.35435 -2.57496,3.73251 -2.90569,3.99237 -0.33073,0.25986 -3.02381,0.0945 -3.94512,0.25986 -0.92132,0.16537 -1.15756,0.35435 -1.724522,0.33073 -0.566965,-0.0236 -1.724517,-0.0945 -1.889881,-0.25986 -0.165365,-0.16536 -0.496094,-0.49609 -0.519716,-0.7087 -0.02363,-0.21262 0.165365,-1.63003 0.165365,-1.63003 0,0 -0.519719,0.0236 -0.755955,0.0945 -0.236233,0.0709 -2.244233,1.44103 -2.244233,1.44103 l -1.582774,1.11031 c 0,0 -0.448847,0.42522 -0.73233,0.42522 -0.283482,0 -2.598586,-0.0472 -3.638021,0.0945 -1.039434,0.14174 -4.724701,0.80319 -5.173548,0.89769 -0.448847,0.0945 -1.41741,0.42522 -1.819011,0.47247 -0.4016,0.0472 -2.55134,0.3071 -2.905691,0.33073 -0.354354,0.0236 -1.346541,0.0945 -1.346541,0.0945 0,0 -0.354354,-0.82682 -0.283483,-1.96075 0.07087,-1.13393 0.472472,-3.16555 0.566965,-3.42541 0.09449,-0.25986 0.283483,-0.54334 0.283483,-0.54334 0,0 -0.897694,0.0473 -1.464659,0.42522 -0.566963,0.37798 -1.913504,1.58278 -2.574962,2.74033 -0.661459,1.15755 -2.031622,2.97656 -2.267858,3.54353 -0.236236,0.56696 -0.874069,0.89769 -1.27567,1.15755 -0.4016,0.25986 -1.535528,0.99219 -1.96075,1.22842 -0.425225,0.23624 -2.456847,2.26786 -2.669458,2.57496 -0.212611,0.30711 -1.771764,2.26786 -2.031622,2.59859 -0.259858,0.33073 -1.41741,2.45685 -1.41741,2.45685 0,0 -0.188989,-0.54334 -0.118118,-0.85045 0.07087,-0.30711 0.779577,-1.65365 0.803199,-1.86626 0.02363,-0.21261 0.425225,-1.72451 0.4016,-2.26785 -0.02363,-0.54334 -0.212611,-1.15756 -0.212611,-1.15756 l -3.449034,3.09468 c 0,0 -2.244233,2.24424 -2.598584,2.71671 -0.354354,0.47247 -1.299295,1.70089 -1.535531,2.95294 -0.236233,1.25204 0.59059,2.45684 0.59059,2.45684 0,0 2.527715,3.09468 2.882066,4.03962 0.354354,0.94494 1.889882,5.78776 2.385976,6.49647 0.496094,0.7087 2.55134,3.75614 4.086868,5.29166 1.535528,1.53553 0.566965,1.15756 1.937128,2.07887 1.370163,0.92132 3.661643,2.48047 4.84282,3.00019 1.181176,0.51972 3.449034,1.81901 3.449034,1.81901 l 9.35491,2.36235 c 0,0 1.063058,0.18899 2.173361,0.23624 1.110306,0.0472 1.27567,-0.14175 2.196989,-0.0472 0.921316,0.0945 2.952938,0.3071 3.449032,0.16536 0.496093,-0.14174 2.055246,-1.44103 2.055246,-1.44103 0,0 -1.417413,-1.55915 -2.433222,-2.24423 -1.015812,-0.68509 -2.740327,-1.96076 -3.118305,-2.31511 -0.377976,-0.35435 -2.182641,-2.05387 -2.680674,-2.38167 -1.314607,-0.86527 -4.334002,-4.18753 -5.710983,-6.20708 -0.354354,-0.51972 -0.774326,-0.93833 -0.957346,-1.52802 -0.425381,-1.37056 0.277575,-1.95484 0.183082,-2.73442 -0.0945,-0.77957 -0.519718,-4.20498 -0.519718,-4.20498 0,0 0.855341,0.49728 1.33962,0.73351 0.48428,0.23623 1.164473,0.61302 1.566071,0.44766 0.4016,-0.16536 0.992187,-1.15755 1.228423,-1.41741 0.236236,-0.25986 2.128737,-2.19006 2.598587,-2.76395 0.46985,-0.57389 1.475876,-1.89394 1.913504,-2.31511 0.437628,-0.42117 0.921316,-0.92131 1.204798,-1.18117 0.283482,-0.25986 3.567152,-2.64583 3.567152,-2.64583 0,0 -0.838634,-0.0945 -1.937128,-0.10635 0,0 0.546256,-0.34836 1.145741,-0.62602 0.788556,-0.36523 2.409598,-1.54734 3.118303,-1.99619 0.708705,-0.44885 1.216611,-0.83862 1.759952,-0.9095 0.543343,-0.0709 3.319104,-0.18899 3.779764,-0.10631 0.46066,0.0827 0.61421,0.10631 0.56696,-0.12993 -0.0472,-0.23623 -0.35435,-0.73233 -0.17718,-0.82682 0.17718,-0.0945 0.55516,-0.33073 0.95676,-0.2953 0.4016,0.0354 0.6024,0.0473 0.76776,0.23624 0.16537,0.18899 0.43704,0.96856 0.82682,1.41741 0.38979,0.44885 0.61422,1.18117 1.2993,1.97256 0.68508,0.79139 1.05124,1.53553 1.9135,2.12612 0.86226,0.59059 1.74814,0.93313 1.74814,0.93313 0,0 -0.5079,-0.73233 -0.54334,-1.72452 -0.0354,-0.99219 -0.11812,-2.4096 0.28348,-4.11049 0.4016,-1.70089 1.24024,-3.33091 1.45285,-3.74433 0.21261,-0.41341 0.7087,-2.10249 2.06706,-3.62621 1.35835,-1.52371 3.15373,-3.88606 3.64983,-4.68926 0.49609,-0.8032 1.06306,-1.8072 1.21661,-2.30329 0.15355,-0.4961 0.22442,-1.71271 0.24805,-1.93713 0.0236,-0.22443 0,-0.50791 0.0945,-0.61421 0.0945,-0.10631 0.98038,-0.8032 1.15755,-1.18118 0.17718,-0.37797 0.72052,-2.13793 0.79139,-2.38597 0.0709,-0.24805 0.48428,-1.464661 0.51972,-1.641839 0.0354,-0.177175 -0.0591,-0.566962 -0.0591,-0.566962 z"
       id="path5081" />
    <path
       style="fill:none;stroke:#1358bc;stroke-width:0.97895831;stroke-linecap:round;stroke-linejoin:round;stroke-miterlimit:4;stroke-dasharray:none;stroke-opacity:1"
       d="M 88.449509,157.43519 86.14431,154.99636"
       id="path5201" />
    <path
       style="fill:#c9e4ff;fill-opacity:1;stroke:none;stroke-width:0.26458332px;stroke-linecap:butt;stroke-linejoin:miter;stroke-opacity:1"
       d="m 81.902725,128.23363 -0.869945,1.18837 -1.837478,0.18375 -0.116933,-1.50339 c 0,0 0.400905,-0.88533 0.718289,-1.25282 0.317383,-0.3675 0.551243,-0.61807 0.601355,-0.78511 0.05011,-0.16704 0.267272,-0.60136 0.41761,-0.71829 0.150339,-0.11693 1.1526,-0.93544 1.603616,-1.21941 0.451017,-0.28398 0.785104,-0.73499 1.336347,-0.95215 0.551244,-0.21716 1.21942,-0.46772 1.503392,-0.50113 0.283974,-0.0334 2.255086,-0.20045 2.372018,-0.11693 0.11693,0.0835 0.150339,0.15034 0.267269,0.13363 0.11693,-0.0167 1.369756,-0.26727 1.453277,-0.26727 0.08352,0 1.737254,-0.45101 1.904296,-0.51783 0.167045,-0.0668 1.904296,-0.61806 2.021226,-0.61806 0.11693,0 0.601356,-0.18375 0.868625,-0.20045 0.267271,-0.0167 0.7684,0.0167 0.952148,0.0334 0.183748,0.0167 1.286235,0.0167 1.586913,0.0334 0.30068,0.0167 0.701582,0.0334 0.701582,0.0334 l -1.503389,0.96886 -3.558027,2.55576 -2.154859,0.63476 -3.307461,0.48443 -3.841999,1.46998 z"
       id="path5166" />
    <path
       style="opacity:1;fill:#c9e4ff;fill-opacity:1;stroke:none;stroke-width:0.26458332px;stroke-linecap:butt;stroke-linejoin:miter;stroke-opacity:1"
       d="m 62.377883,142.3723 c 0.74414,0.24805 2.055246,0.53153 3.106491,0.55515 1.051248,0.0236 2.799387,0.48428 3.307292,0.62603 0.507905,0.14174 1.039434,0.37797 1.559152,0.46066 0.519716,0.0827 0.685081,-0.0472 1.228421,0.0709 0.543343,0.11812 2.126118,0.77958 2.669458,1.27567 0.54334,0.4961 1.13393,1.39379 1.535528,1.79539 0.4016,0.4016 1.322917,1.06306 1.795388,1.37017 0.472469,0.3071 1.063056,0.82682 1.511903,1.27567 0.448848,0.44884 0.767766,1.12211 1.889882,2.19698 1.122117,1.07487 1.724517,1.47647 2.244233,1.65365 0.519718,0.17717 1.559153,0.68508 1.925317,0.72051 0.366165,0.0354 1.051245,0.25986 1.051245,0.25986 l 2.267858,1.9017 0.437036,0.64964 -3.933314,-0.27167 -7.535902,-1.86625 c 0,0 -2.66922,-1.06893 -3.00331,-1.03552 -0.334086,0.0334 -5.81311,-3.34087 -5.81311,-3.34087 0,0 -2.839738,-2.17156 -2.839738,-2.43883 0,-0.26727 -3.226655,-4.91386 -3.226655,-4.91386 z"
       id="path5183" />
    <path
       style="fill:#1358bc;fill-opacity:1;stroke:none;stroke-width:0.26458332px;stroke-linecap:butt;stroke-linejoin:miter;stroke-opacity:1"
       d="m 75.146391,122.69392 c 0,0 0.295294,0.0827 0.944941,-0.0473 0.649645,-0.12993 1.27567,-0.30711 1.61821,-0.4961 0.34254,-0.18898 0.956752,-0.69689 1.098492,-0.76776 0.141743,-0.0709 0.129932,0.0118 0.25986,-0.0709 0.129929,-0.0827 0.744141,-0.70871 1.003999,-0.98038 0.259858,-0.27167 0.956752,-0.81501 1.192988,-1.07487 0.236236,-0.25985 0.472469,-0.56696 0.437033,-0.87406 -0.03543,-0.30711 -0.106304,-0.41342 -0.330729,-0.54335 -0.224422,-0.12993 -0.437033,-0.25986 -0.68508,-0.25986 -0.248047,0 -1.027623,0.0827 -1.216613,0.11812 -0.188986,0.0354 -0.661458,0.0827 -0.803198,0.11812 -0.14174,0.0354 -0.460658,0.0945 -0.460658,0.0945 l -0.590587,-0.93312 -0.377979,-1.57097 0.0945,-2.1143 0.342541,-2.05525 -0.496094,-0.24804 -0.248047,0.14174 c 0,0 -0.318918,0.59059 -0.437036,0.89769 -0.118115,0.3071 -0.259858,0.69689 -0.366162,0.9095 -0.106307,0.21262 -0.236236,0.44885 -0.342543,0.75596 -0.106304,0.3071 -0.248047,0.92132 -0.295294,1.26386 -0.04725,0.34254 -0.08268,0.81501 -0.224422,1.29929 -0.141742,0.48428 -0.295293,1.15755 -0.377976,1.78357 -0.08268,0.62603 -0.307107,1.5001 -0.318918,2.2088 -0.0118,0.70871 -0.04725,1.08668 0.0118,1.45285 0.05906,0.36616 0.04725,0.66146 0.141742,0.75595 0.09449,0.0945 0.14174,0.14174 0.224422,0.18899 0.08268,0.0473 0.200801,0.0473 0.200801,0.0473 z"
       id="path5112" />
    <path
       style="fill:none;stroke:#1358bc;stroke-width:1.00541663;stroke-linecap:round;stroke-linejoin:round;stroke-miterlimit:4;stroke-dasharray:none;stroke-opacity:1"
       d="m 79.197823,127.01702 c 0,0 -0.177175,0.14174 -0.248046,0.53153 -0.07087,0.38979 -0.141743,1.1103 -0.0118,1.53553 0.129929,0.42522 0.129929,0.47247 0.460658,0.56696 0.330729,0.0945 1.370164,-0.0945 1.712704,-0.33073 0.34254,-0.23623 0.791387,-1.08668 0.791387,-1.08668"
       id="path5146" />
    <path
       style="fill:#152b61;fill-opacity:1;stroke:#000000;stroke-width:0.47624999;stroke-linecap:round;stroke-linejoin:miter;stroke-miterlimit:4;stroke-dasharray:none;stroke-opacity:1"
       d="m 75.878721,154.81009 c -0.283483,-0.96857 -0.850448,-2.03163 -0.921319,-2.62222 -0.07087,-0.59059 -0.14174,-1.5119 -0.14174,-1.5119 0,0 0.212611,0.18898 0.968563,0.99218 0.755954,0.8032 1.204799,1.91351 1.630024,2.17337 0.425222,0.25985 1.748139,1.13392 1.748139,1.13392 l 0.661458,0.66146 z"
       id="path5180" />
    <path
       style="fill:none;stroke:#1358bc;stroke-width:0.74083334;stroke-linecap:round;stroke-linejoin:round;stroke-miterlimit:4;stroke-dasharray:none;stroke-opacity:1"
       d="m 78.109518,133.63985 c 0,0 0.317384,-0.43431 0.684879,-0.49278 0.367496,-0.0585 0.317381,-0.1921 0.551244,-0.008 0.23386,0.18375 0.258916,1.1526 0.258916,1.1526 l 0.359145,2.37202"
       id="path5140" />
    <path
       style="fill:none;stroke:#1358bc;stroke-width:1.03187501;stroke-linecap:round;stroke-linejoin:miter;stroke-miterlimit:4;stroke-dasharray:none;stroke-opacity:1"
       d="m 62.975381,121.738 c 0,0 0.116932,0.66818 -0.05011,1.70385 -0.167042,1.03567 -0.785104,3.19053 -0.985557,3.70836 -0.200451,0.51784 -0.618059,0.83522 -0.785104,1.50339 -0.167044,0.66818 -0.317383,2.13816 -0.384199,2.80633 -0.06682,0.66818 -0.08352,1.1359 -0.08352,1.1359"
       id="path5132" />
    <path
       style="fill:#1358bc;fill-opacity:1;stroke:none;stroke-width:0.26458332px;stroke-linecap:butt;stroke-linejoin:miter;stroke-opacity:1"
       d="m 91.718285,125.64685 c 0,0 -0.637836,0.11812 -1.464659,0.57878 -0.826823,0.46066 -1.783575,1.18118 -2.256044,1.50009 -0.472472,0.31892 -1.417413,1.13393 -1.819011,1.61821 -0.4016,0.48429 -1.955262,2.4835 -2.590027,2.95122 -0.634764,0.46772 -1.000747,1.1829 -1.721265,1.32464 -0.720516,0.14174 -1.039434,0.25986 -1.381975,0.0354 -0.34254,-0.22442 -0.74414,-0.5079 -0.74414,-0.5079 l -0.05906,0.29529 0.437034,1.37017 1.925317,0.72051 1.594585,-0.81501 2.338729,-3.03562 2.031622,-2.2088 1.570963,-1.57096 2.090682,-1.59459 0.649645,-0.51971 z"
       id="path5158" />
    <path
       style="fill:none;stroke:#1358bc;stroke-width:0.89958334;stroke-linecap:round;stroke-linejoin:round;stroke-miterlimit:4;stroke-dasharray:none;stroke-opacity:1"
       d="m 76.800037,137.63579 c 0,0 0.259858,-0.25986 0.566965,-0.4961 0.307105,-0.23623 0.366162,-0.31891 0.507905,-0.22442 0.14174,0.0945 0.696894,0.61421 0.815012,0.85045 0.118115,0.23623 0.602398,1.90169 0.602398,1.90169 l 0.448847,0.94494"
       id="path5134" />
    <path
       style="fill:none;stroke:#1358bc;stroke-width:0.84666669;stroke-linecap:round;stroke-linejoin:round;stroke-miterlimit:4;stroke-dasharray:none;stroke-opacity:1"
       d="m 76.706353,135.40216 c 0,0 0.384202,-0.35079 0.718289,-0.60136 0.334086,-0.25056 0.567946,-0.43431 0.785103,-0.30067 0.217157,0.13363 0.434313,0.56794 0.551243,0.7851 0.11693,0.21716 0.35079,1.05237 0.400905,1.20271 0.05011,0.15034 0.7684,2.42213 0.7684,2.42213"
       id="path5138" />
    <path
       style="fill:#1358bc;fill-opacity:1;stroke:none;stroke-width:0.26458332px;stroke-linecap:butt;stroke-linejoin:miter;stroke-opacity:1"
       d="m 108.49472,125.64682 c 0,0 -0.46772,0.0334 -1.13589,-0.96885 -0.66818,-1.00226 -1.1359,-2.17156 -1.60362,-2.7061 -0.46772,-0.53454 -0.88533,-1.46999 -1.40316,-1.98782 -0.51784,-0.51783 -1.21942,-0.58465 -1.21942,-0.58465 0,0 -1.28624,0.11693 -1.72055,0.31738 -0.43431,0.20045 -0.68488,0.43431 -0.70158,0.53454 -0.0167,0.10023 0.11693,0.25056 0.10022,0.31738 -0.0167,0.0668 0,-0.0835 -0.61806,-0.0167 -0.618057,0.0668 -1.920998,0.30068 -2.154858,0.3675 -0.23386,0.0668 -0.534537,0.11693 -0.718285,0.23386 -0.183748,0.11693 0.167042,0.50113 0.167042,0.50113 l 2.539061,0.11693 1.40316,-0.43431 0.13364,-0.7517 1.00226,-0.3842 1.01897,0.80181 2.07133,3.15712 2.37202,2.18827 z"
       id="path5154" />
    <path
       style="fill:none;stroke:#1358bc;stroke-width:0.97895831;stroke-linecap:round;stroke-linejoin:round;stroke-miterlimit:4;stroke-dasharray:none;stroke-opacity:1"
       d="m 63.860711,136.38772 c 0,0 -0.183748,-0.23386 -0.734991,-0.15034 -0.551241,0.0835 -1.052373,0.35079 -1.102485,0.58465 -0.05011,0.23386 -0.501131,1.48669 -0.467722,1.62032 0.03341,0.13363 0.217157,2.99008 0.217157,2.99008 l 0.08352,1.31964"
       id="path5122" />
    <path
       style="fill:none;stroke:#1358bc;stroke-width:0.82020831;stroke-linecap:round;stroke-linejoin:round;stroke-miterlimit:4;stroke-dasharray:none;stroke-opacity:1"
       d="m 63.042199,135.00125 c 0,0 -0.317381,-0.23385 -0.718286,-0.33408 -0.400905,-0.10023 -0.317384,-0.11693 -0.467722,0.0167 -0.150339,0.13364 -0.334087,0.33409 -0.367496,0.58465 -0.03341,0.25057 -0.133636,0.20046 -0.23386,1.08579 -0.100227,0.88533 -0.233863,2.73951 -0.233863,3.02348 0,0.28398 -0.03341,1.08578 -0.03341,1.08578"
       id="path5124" />
    <path
       style="fill:none;stroke:#1358bc;stroke-width:0.76729167;stroke-linecap:round;stroke-linejoin:miter;stroke-miterlimit:4;stroke-dasharray:none;stroke-opacity:1"
       d="m 61.572216,133.79019 c 0,0 -0.06681,-0.13363 -0.141986,-0.29233 -0.07517,-0.15869 -0.05846,-0.19209 -0.150339,-0.20045 -0.09187,-0.008 -0.097,-0.0853 -0.267269,0.0418 -0.170267,0.1271 -0.250565,0.3675 -0.267271,0.54289 -0.01669,0.1754 -0.384199,0.83522 -0.400905,1.27789 -0.01669,0.44266 -0.16356,1.58998 -0.16356,1.58998 l -0.128765,1.06601"
       id="path5126" />
    <path
       style="fill:none;stroke:#1358bc;stroke-width:1.58749998;stroke-linecap:round;stroke-linejoin:round;stroke-miterlimit:4;stroke-dasharray:none;stroke-opacity:1"
       d="m 58.181234,126.03102 c 0,0 -0.567947,0.78511 -0.835216,1.75396 -0.267271,0.96885 -0.634767,1.1526 -0.467722,2.23838 0.167042,1.08578 0.534538,1.75396 0.701582,2.25509 0.167042,0.50113 1.152599,2.50565 1.152599,2.50565"
       id="path5128"/>
    <path
            id="path5085"
       d="m 119.93657,98.491629 c 0,0 -1.63002,0.897691 -2.26786,1.511901 -0.63783,0.61421 -3.09468,2.78758 -3.33091,3.07106 -0.23624,0.28348 -2.52772,2.07887 -2.69308,2.33873 -0.16537,0.25985 -2.88207,3.49628 -3.11831,3.85063 -0.23623,0.35435 -2.57496,3.73251 -2.90569,3.99237 -0.33073,0.25986 -3.02381,0.0945 -3.94512,0.25986 -0.92132,0.16537 -1.15756,0.35435 -1.724522,0.33073 -0.566965,-0.0236 -1.724517,-0.0945 -1.889881,-0.25986 -0.165365,-0.16536 -0.496094,-0.49609 -0.519716,-0.7087 -0.02363,-0.21262 0.165365,-1.63003 0.165365,-1.63003 0,0 -0.519719,0.0236 -0.755955,0.0945 -0.236233,0.0709 -2.244233,1.44103 -2.244233,1.44103 l -1.582774,1.11031 c 0,0 -0.448847,0.42522 -0.73233,0.42522 -0.283482,0 -2.598586,-0.0472 -3.638021,0.0945 -1.039434,0.14174 -4.724701,0.80319 -5.173548,0.89769 -0.448847,0.0945 -1.41741,0.42522 -1.819011,0.47247 -0.4016,0.0472 -2.55134,0.3071 -2.905691,0.33073 -0.354354,0.0236 -1.346541,0.0945 -1.346541,0.0945 0,0 -0.354354,-0.82682 -0.283483,-1.96075 0.07087,-1.13393 0.472472,-3.16555 0.566965,-3.42541 0.09449,-0.25986 0.283483,-0.54334 0.283483,-0.54334 0,0 -0.897694,0.0473 -1.464659,0.42522 -0.566963,0.37798 -1.913504,1.58278 -2.574962,2.74033 -0.661459,1.15755 -2.031622,2.97656 -2.267858,3.54353 -0.236236,0.56696 -0.874069,0.89769 -1.27567,1.15755 -0.4016,0.25986 -1.535528,0.99219 -1.96075,1.22842 -0.425225,0.23624 -2.456847,2.26786 -2.669458,2.57496 -0.212611,0.30711 -1.771764,2.26786 -2.031622,2.59859 -0.259858,0.33073 -1.41741,2.45685 -1.41741,2.45685 0,0 -0.188989,-0.54334 -0.118118,-0.85045 0.07087,-0.30711 0.779577,-1.65365 0.803199,-1.86626 0.02363,-0.21261 0.425225,-1.72451 0.4016,-2.26785 -0.02363,-0.54334 -0.212611,-1.15756 -0.212611,-1.15756 l -3.449034,3.09468 c 0,0 -2.244233,2.24424 -2.598584,2.71671 -0.354354,0.47247 -1.299295,1.70089 -1.535531,2.95294 -0.236233,1.25204 0.59059,2.45684 0.59059,2.45684 0,0 2.527715,3.09468 2.882066,4.03962 0.354354,0.94494 1.889882,5.78776 2.385976,6.49647 0.496094,0.7087 2.55134,3.75614 4.086868,5.29166 1.535528,1.53553 0.566965,1.15756 1.937128,2.07887 1.370163,0.92132 3.661643,2.48047 4.84282,3.00019 1.181176,0.51972 3.449034,1.81901 3.449034,1.81901 l 9.35491,2.36235 c 0,0 1.063058,0.18899 2.173361,0.23624 1.110306,0.0472 1.27567,-0.14175 2.196989,-0.0472 0.921316,0.0945 2.952938,0.3071 3.449032,0.16536 0.496093,-0.14174 2.055246,-1.44103 2.055246,-1.44103 0,0 -1.417413,-1.55915 -2.433222,-2.24423 -1.015812,-0.68509 -2.740327,-1.96076 -3.118305,-2.31511 -0.377976,-0.35435 -2.182641,-2.05387 -2.680674,-2.38167 -1.314607,-0.86527 -4.334002,-4.18753 -5.710983,-6.20708 -0.354354,-0.51972 -0.774326,-0.93833 -0.957346,-1.52802 -0.425381,-1.37056 0.277575,-1.95484 0.183082,-2.73442 -0.0945,-0.77957 -0.519718,-4.20498 -0.519718,-4.20498 0,0 0.855341,0.49728 1.33962,0.73351 0.48428,0.23623 1.164473,0.61302 1.566071,0.44766 0.4016,-0.16536 0.992187,-1.15755 1.228423,-1.41741 0.236236,-0.25986 2.128737,-2.19006 2.598587,-2.76395 0.46985,-0.57389 1.475876,-1.89394 1.913504,-2.31511 0.437628,-0.42117 0.921316,-0.92131 1.204798,-1.18117 0.283482,-0.25986 3.567152,-2.64583 3.567152,-2.64583 0,0 -0.838634,-0.0945 -1.937128,-0.10635 0,0 0.546256,-0.34836 1.145741,-0.62602 0.788556,-0.36523 2.409598,-1.54734 3.118303,-1.99619 0.708705,-0.44885 1.216611,-0.83862 1.759952,-0.9095 0.543343,-0.0709 3.319104,-0.18899 3.779764,-0.10631 0.46066,0.0827 0.61421,0.10631 0.56696,-0.12993 -0.0472,-0.23623 -0.35435,-0.73233 -0.17718,-0.82682 0.17718,-0.0945 0.55516,-0.33073 0.95676,-0.2953 0.4016,0.0354 0.6024,0.0473 0.76776,0.23624 0.16537,0.18899 0.43704,0.96856 0.82682,1.41741 0.38979,0.44885 0.61422,1.18117 1.2993,1.97256 0.68508,0.79139 1.05124,1.53553 1.9135,2.12612 0.86226,0.59059 1.74814,0.93313 1.74814,0.93313 0,0 -0.5079,-0.73233 -0.54334,-1.72452 -0.0354,-0.99219 -0.11812,-2.4096 0.28348,-4.11049 0.4016,-1.70089 1.24024,-3.33091 1.45285,-3.74433 0.21261,-0.41341 0.7087,-2.10249 2.06706,-3.62621 1.35835,-1.52371 3.15373,-3.88606 3.64983,-4.68926 0.49609,-0.8032 1.06306,-1.8072 1.21661,-2.30329 0.15355,-0.4961 0.22442,-1.71271 0.24805,-1.93713 0.0236,-0.22443 0,-0.50791 0.0945,-0.61421 0.0945,-0.10631 0.98038,-0.8032 1.15755,-1.18118 0.17718,-0.37797 0.72052,-2.13793 0.79139,-2.38597 0.0709,-0.24805 0.48428,-1.464661 0.51972,-1.641839 0.0354,-0.177175 -0.0591,-0.566962 -0.0591,-0.566962 z"
       style="fill:none;stroke:#000000;stroke-width:1.05833328;stroke-linecap:butt;stroke-linejoin:miter;stroke-miterlimit:4;stroke-dasharray:none;stroke-opacity:1"/>
    <path
       style="fill:none;stroke:#000000;stroke-width:0.5291667;stroke-linecap:round;stroke-linejoin:miter;stroke-miterlimit:4;stroke-dasharray:none;stroke-opacity:1"
       d="m 91.35212,125.22165 c 0,0 -2.93602,0.29154 -4.639863,0.75926 -1.703845,0.46772 -2.555766,0.80181 -3.190531,1.11919 -0.634764,0.31738 -1.186008,0.7684 -1.336347,1.03567 -0.150339,0.26727 -0.250565,1.11919 -0.734991,1.52009 -0.484426,0.40091 -1.553504,0.56795 -1.753957,0.51784 -0.200451,-0.0501 -0.35079,-0.0835 -0.35079,-0.0835"
       id="path5087" />
    <path
       style="fill:none;stroke:#000000;stroke-width:0.87312502;stroke-linecap:round;stroke-linejoin:miter;stroke-miterlimit:4;stroke-dasharray:none;stroke-opacity:1"
       d="m 77.508742,116.20927 c 0,0 0.04725,0.75594 0.578776,1.54733 0.531529,0.79139 1.252045,1.39379 1.252045,1.39379"
       id="path5089" />
    <path
       style="fill:none;stroke:#000000;stroke-width:0.76729167;stroke-linecap:round;stroke-linejoin:miter;stroke-miterlimit:4;stroke-dasharray:none;stroke-opacity:1"
       d="m 71.528008,117.44499 c 0,0 -1.503392,2.60588 -1.720549,3.14042 -0.217156,0.53453 -1.102487,2.42213 -1.252825,2.92326 -0.150339,0.50113 -0.300678,0.86862 -0.300678,0.86862"
       id="path5091" />
    <path
       style="fill:none;stroke:#000000;stroke-width:0.39687499;stroke-linecap:round;stroke-linejoin:miter;stroke-miterlimit:4;stroke-dasharray:none;stroke-opacity:1"
       d="m 79.871093,134.4703 c 0,0 0.08268,-0.30717 -0.271669,-0.70877 -0.354354,-0.4016 -0.271672,-0.42522 -0.437036,-0.49609 -0.165365,-0.0709 -0.566965,0.11812 -0.566965,0.11812"
       id="path5093" />
    <path
       style="fill:none;stroke:#000000;stroke-width:0.42333332;stroke-linecap:round;stroke-linejoin:miter;stroke-miterlimit:4;stroke-dasharray:none;stroke-opacity:1"
       d="m 80.166386,139.67922 c 0,0 -0.377976,-0.63784 -0.531529,-1.21661 -0.153551,-0.57878 -0.472469,-2.74033 -0.696891,-3.23642 -0.224425,-0.4961 -0.224425,-0.66146 -0.496094,-0.66146 -0.271672,0 -0.53153,0.0827 -0.566965,0.17718 -0.03544,0.0945 -0.307107,0.53152 -0.307107,0.53152"
       id="path5095" />
    <path
       style="fill:none;stroke:#000000;stroke-width:0.55562502;stroke-linecap:round;stroke-linejoin:miter;stroke-miterlimit:4;stroke-dasharray:none;stroke-opacity:1"
       d="m 80.083704,141.10844 c 0,0 -0.54334,-0.38979 -0.626023,-0.59059 -0.08268,-0.2008 -1.027623,-3.04743 -1.133927,-3.34272 -0.106307,-0.2953 -0.236236,-0.66146 -0.425225,-0.72052 -0.188987,-0.0591 -0.307105,-0.0118 -0.366162,0.0354 -0.05906,0.0472 -0.259861,0.28348 -0.259861,0.28348"
       id="path5097" />
    <path
       style="fill:none;stroke:#000000;stroke-width:0.5291667;stroke-linecap:round;stroke-linejoin:miter;stroke-miterlimit:4;stroke-dasharray:none;stroke-opacity:1"
       d="m 62.555058,143.31724 c 0,0 -0.153551,-0.47247 -0.448847,-1.73633 -0.295293,-1.26386 -0.519715,-1.55915 -0.366162,-2.29148 0.153551,-0.73233 0.200798,-1.18117 0.401598,-1.64183 0.2008,-0.46066 0.389789,-1.01581 0.578776,-1.05125 0.188989,-0.0354 1.122116,0.2008 1.122116,0.2008"
       id="path5103" />
    <path
       style="fill:none;stroke:#000000;stroke-width:0.42333332;stroke-linecap:round;stroke-linejoin:miter;stroke-miterlimit:4;stroke-dasharray:none;stroke-opacity:1"
       d="m 60.523437,139.12407 c 0,0 -0.03544,-0.86226 0.05906,-1.51191 0.09449,-0.64964 0.08268,-1.24023 0.259858,-1.66545 0.177175,-0.42523 0.4016,-0.86226 0.54334,-1.06306 0.14174,-0.2008 0.224423,-0.46066 0.413412,-0.51972 0.188989,-0.0591 0.4016,-0.0827 0.448847,-0.0709 0.04725,0.0118 0.507905,0.25986 0.507905,0.25986"
       id="path5105" />
    <path
       style="fill:none;stroke:#000000;stroke-width:0.34395832;stroke-linecap:round;stroke-linejoin:miter;stroke-miterlimit:4;stroke-dasharray:none;stroke-opacity:1"
       d="m 61.432942,133.15913 c 0,0 -0.07087,-0.11812 -0.129929,-0.11812 -0.05906,0 -0.188989,0.0236 -0.212611,0.0709 -0.02363,0.0472 -0.248047,0.35436 -0.248047,0.35436 0,0 -0.141743,0.25986 -0.2008,0.42522 -0.05906,0.16536 -0.354354,1.15755 -0.366165,1.26386 -0.0118,0.1063 -0.106304,1.07487 -0.106304,1.07487 l 0.0118,0.51971"
       id="path5107" />
    <path
       style="fill:none;stroke:#000000;stroke-width:0.89958334;stroke-linecap:round;stroke-linejoin:miter;stroke-miterlimit:4;stroke-dasharray:none;stroke-opacity:1"
       d="m 62.413318,127.00522 -0.90792,1.94906"
       id="path5109" />
    <path
       style="fill:none;stroke:#1358bc;stroke-width:0.79374999;stroke-linecap:round;stroke-linejoin:miter;stroke-miterlimit:4;stroke-dasharray:none;stroke-opacity:1"
       d="m 85.935504,122.98248 c 0.618061,-0.99391 1.00226,-1.97111 1.495039,-2.42213 0.400904,-0.34244 0.400904,-0.34244 0.400904,-0.34244"
       id="path5148"/>
    <path
       style="fill:none;stroke:#1358bc;stroke-width:0.79374999;stroke-linecap:round;stroke-linejoin:miter;stroke-miterlimit:4;stroke-dasharray:none;stroke-opacity:1"
       d="m 89.585405,120.1845 c -0.701583,0.3675 -1.069078,0.43431 -1.586913,0.85192 -0.517835,0.41761 -1.637027,1.67044 -1.637027,1.67044"
       id="path5150" />
    <path
       style="fill:none;stroke:#1358bc;stroke-width:0.79374999;stroke-linecap:round;stroke-linejoin:round;stroke-miterlimit:4;stroke-dasharray:none;stroke-opacity:1"
       d="m 91.122203,120.28473 c -0.501129,0.18375 -0.801807,0.16704 -1.319642,0.50113 -0.517834,0.33408 -0.801809,0.26727 -1.436573,0.71828 -0.634767,0.45102 -1.269532,1.01897 -1.269532,1.01897"
       id="path5152" />
    <path
       style="fill:none;stroke:#000000;stroke-width:0.079375;stroke-linecap:round;stroke-linejoin:miter;stroke-miterlimit:4;stroke-dasharray:none;stroke-opacity:1"
       d="m 85.935504,122.98248 c 0,0 0.442666,-0.92709 0.643117,-1.24448 0.200454,-0.31738 1.252824,-1.52009 1.252824,-1.52009"
       id="path5160" />
    <path
       style="fill:none;stroke:#000000;stroke-width:0.079375;stroke-linecap:round;stroke-linejoin:round;stroke-miterlimit:4;stroke-dasharray:none;stroke-opacity:1"
       d="m 86.361465,122.70686 c 0,0 0.601358,-0.86863 1.069078,-1.23612 0.467722,-0.3675 2.154862,-1.28624 2.154862,-1.28624"
       id="path5162" />
    <path
       style="fill:none;stroke:#000000;stroke-width:0.079375;stroke-linecap:round;stroke-linejoin:round;stroke-miterlimit:4;stroke-dasharray:none;stroke-opacity:1"
       d="m 87.096456,122.52311 c 0,0 0.150339,-0.21716 0.701582,-0.60136 0.551244,-0.3842 1.236123,-0.88533 1.45328,-0.90203 0.217157,-0.0167 1.870885,-0.73499 1.870885,-0.73499"
       id="path5164" />
    <path
       style="fill:none;stroke:#000000;stroke-width:0.079375;stroke-linecap:round;stroke-linejoin:miter;stroke-miterlimit:4;stroke-dasharray:none;stroke-opacity:1"
       d="m 78.827806,127.38407 c 0,0 -0.06682,0.16704 0.250561,0.71829 0.317386,0.55124 0.417613,1.26953 0.701587,1.50339"
       id="path5171" />
    <path
       style="fill:none;stroke:#000000;stroke-width:0.079375;stroke-linecap:round;stroke-linejoin:round;stroke-miterlimit:4;stroke-dasharray:none;stroke-opacity:1"
       d="m 78.543832,127.61794 c 0,0 0.06598,0.27639 0.167044,0.51783 0.154219,1.15095 0.968852,2.35531 1.35305,2.73951"
       id="path5173" />
    <path
       style="fill:none;stroke:#000000;stroke-width:0.079375;stroke-linecap:round;stroke-linejoin:round;stroke-miterlimit:4;stroke-dasharray:none;stroke-opacity:1"
       d="m 78.390628,127.70009 c 0,0 -0.05973,0.4094 -0.06395,0.81988 0.167045,1.11919 0.350793,1.35305 0.534541,1.5368 0.183748,0.18375 0.317381,0.36749 0.317381,0.36749"
       id="path5175" />
    <path
       style="fill:none;stroke:#000000;stroke-width:0.60854167;stroke-linecap:round;stroke-linejoin:round;stroke-miterlimit:4;stroke-dasharray:none;stroke-opacity:1"
       d="m 88.470051,156.53464 c 0,0 -0.872464,-0.60284 -1.423707,-1.07056 -0.551244,-0.46772 -1.069078,-1.01061 -1.069078,-1.01061 l -0.242213,0.7684"
       id="path5185" />
    <path
       style="opacity:1;fill:none;stroke:#1358bc;stroke-width:1.32291663;stroke-linecap:round;stroke-linejoin:round;stroke-miterlimit:4;stroke-dasharray:none;stroke-opacity:1"
       d="m 65.578867,139.37211 c 0,0 0.708708,0.2008 1.27567,1.28749 0.566966,1.08668 1.07487,1.93712 1.216613,2.42141 0.14174,0.48428 0.755951,2.72851 0.755951,2.72851"
       id="path5187" />
    <path
       style="fill:none;stroke:#000000;stroke-width:0.05291667;stroke-linecap:round;stroke-linejoin:miter;stroke-miterlimit:4;stroke-dasharray:none;stroke-opacity:1"
       d="m 66.683746,139.91233 c 0,0 1.703843,3.79189 1.837479,4.42666 0.133635,0.63476 0.305876,1.47053 0.305876,1.47053"
       id="path5189" />
    <path
       style="fill:none;stroke:#000000;stroke-width:0.05291667;stroke-linecap:round;stroke-linejoin:miter;stroke-miterlimit:4;stroke-dasharray:none;stroke-opacity:1"
       d="m 65.965461,139.34439 c 0.751694,1.33634 1.302938,2.62258 1.403165,2.80632 0.100224,0.18375 0.785103,2.12146 0.785103,2.12146"
       id="path5191" />
    <path
       style="fill:none;stroke:#000000;stroke-width:0.05291667;stroke-linecap:round;stroke-linejoin:round;stroke-miterlimit:4;stroke-dasharray:none;stroke-opacity:1"
       d="m 65.31901,139.49023 c 0,0 1.074869,1.74814 1.145741,1.94894 0.07087,0.2008 0.980376,1.97256 0.980376,1.97256"
       id="path5193" />
    <path
       style="opacity:1;fill:none;stroke:#1358bc;stroke-width:1.37583327;stroke-linecap:round;stroke-linejoin:round;stroke-miterlimit:4;stroke-dasharray:none;stroke-opacity:1"
       d="m 72.095954,142.76878 c 1.269529,-0.23386 1.353053,-0.70159 2.271792,-0.33409 0.918739,0.36749 1.453277,0.88533 1.653731,1.36976 0.200451,0.48442 0.250563,0.85192 0.250563,0.85192"
       id="path5195" />
    <path
       style="fill:none;stroke:#000000;stroke-width:0.60854167;stroke-linecap:round;stroke-linejoin:round;stroke-miterlimit:4;stroke-dasharray:none;stroke-opacity:1"
       d="m 72.496859,142.53492 c 1.436574,0.13363 2.539061,0.26726 2.973374,0.71828 0.434311,0.45102 0.818513,2.15486 0.818513,2.15486"
       id="path5197" />
    <path
       style="fill:none;stroke:#1358bc;stroke-width:0.5291667;stroke-linecap:round;stroke-linejoin:round;stroke-miterlimit:4;stroke-dasharray:none;stroke-opacity:1"
       d="m 84.824664,153.87717 c -0.868624,-0.30068 -1.553503,-0.40091 -2.372016,-1.18601 -0.818512,-0.78511 -3.073598,-3.0569 -3.073598,-3.0569"
       id="path5199" />
    <path
       style="opacity:1;fill:#ffffff;fill-opacity:1;stroke:none;stroke-width:0.26458332px;stroke-linecap:butt;stroke-linejoin:miter;stroke-opacity:1"
       d="m 74.025307,148.29791 c 0.409254,-0.21715 1.127543,-0.67652 1.135896,-1.01061 0.0084,-0.33409 -0.125283,-1.20271 -0.125283,-1.20271 l -0.643118,-0.29233 -1.603618,1.20272 -0.46772,0.4009 0.634765,0.52619 z"
       id="path5220" />
    <path
       style="opacity:1;fill:none;stroke:#1358bc;stroke-width:1.03187501;stroke-linecap:round;stroke-linejoin:round;stroke-miterlimit:4;stroke-dasharray:none;stroke-opacity:1"
       d="m 71.561414,144.23041 c 0.06682,-0.0334 0.559596,-0.25057 1.511745,-0.0167 0.952148,0.23386 1.695492,1.09413 1.753957,1.19436 0.05846,0.10023 0.576299,1.39481 0.551243,1.85418"
       id="path5210" />
    <path
       style="opacity:1;fill:#26d2ef;fill-opacity:1;stroke:none;stroke-width:0.26458332px;stroke-linecap:butt;stroke-linejoin:miter;stroke-opacity:1"
       d="m 70.951706,145.01551 c 0.06682,-0.20045 0.183745,-0.5763 0.459369,-0.60971 0.275622,-0.0334 1.779013,0.10858 1.779013,0.10858 l 1.211067,0.70994 0.442664,0.73499 c 0,0 -0.05846,0.30903 -0.267269,0.53453 -0.208804,0.22551 -0.601358,0.58466 -0.943795,0.735 -0.34244,0.15033 -0.584653,0.25891 -0.801809,0.27562 -0.217157,0.0167 -1.00226,-0.45106 -1.00226,-0.45106 l -0.5763,-1.03567 z"
       id="path5222" />
    <path
       style="fill:#ffffff;fill-opacity:1;stroke:none;stroke-width:0.26458332px;stroke-linecap:butt;stroke-linejoin:miter;stroke-opacity:1"
       d="m 72.029137,144.30558 0.868627,0.15869 0.05846,0.76005 -0.45937,0.90203 -0.626414,0.0668 -0.425961,-0.28398 z"
       id="path5226" />
    <path
       style="opacity:1;fill:none;stroke:#000000;stroke-width:0.5291667;stroke-linecap:round;stroke-linejoin:round;stroke-miterlimit:4;stroke-dasharray:none;stroke-opacity:1"
       d="m 71.561414,144.23041 c 0,0 0.217157,-0.10858 0.902036,0.0334 0.684879,0.14199 1.353053,0.42597 1.419868,0.51784 0.06682,0.0919 1.186011,1.16095 1.33635,1.45328"
       id="path5213" />
    <path
       style="fill:none;stroke:#000000;stroke-width:0.6879167;stroke-linecap:round;stroke-linejoin:round;stroke-miterlimit:4;stroke-dasharray:none;stroke-opacity:1"
       d="m 71.862094,144.49767 c 0,0 -0.267265,0.15032 -0.342438,0.53455 -0.162645,0.83127 -0.250566,1.08578 0.02506,1.16095 0.275622,0.0752 0.92709,0.14198 1.002258,-0.0585 0.07517,-0.20045 0.626415,-1.35305 0.626415,-1.35305"
       id="path5224"/>
    <path
       style="fill:none;stroke:#000000;stroke-width:0.50270832;stroke-linecap:round;stroke-linejoin:miter;stroke-miterlimit:4;stroke-dasharray:none;stroke-opacity:1"
       d="m 70.951706,145.01551 c 0.07517,0.60136 0.141988,1.1693 0.41761,1.56186 0.275622,0.39255 0.818515,0.62644 0.952148,0.81851 0.133633,0.19206 1.870885,0.93544 1.870885,0.93544"
       id="path5228" />
  </g>
  <path
     style="fill:#ffffff;stroke:none;stroke-width:1px;stroke-linecap:butt;stroke-linejoin:miter;stroke-opacity:1;fill-opacity:1"
     d="m 133.46341,467.13543 115.82169,68.26577 116.58873,19.94281 204.7973,-19.17578 58.29436,9.20437 4.60219,59.0614 -53.69218,6.90328 -217.83683,2.30109 -171.81496,-39.88562 -36.81749,-35.28343 -18.40875,-26.84609 z"
     id="path5556"/>
  <path
     id="path3814"
     d="m 459.61941,880.05326 39.14341,5.80838 109.00504,-302.21878 C 538.99801,552.93206 541.2851,568.78651 443.92857,591.5 330.74972,617.90487 219.0586,570.91692 140.71429,502.57143 138.50958,553.156 205.83886,724.66737 428.125,693.375 c 39.18743,-5.51661 87.30534,22.0234 87.30534,22.0234 z"
     fill="#ed1c24" />
  <path
     id="path3818"
     d="m 621.78572,870.78571 c 21.78571,-3.57142 30.58082,-8.67448 46.07142,-17.85714 L 850.29591,345.43003 c 0,0 -23.7257,-13.74263 -33.58758,-26.01143 z"
     style="fill:#231f20;fill-opacity:1" />
  <path
     id="path6064"
     d="m 684.20727,606.31999 c -44.47455,-27.72487 -64.38515,-38.10632 -87.5,-45.62282 -18.60365,-6.04955 -34.38638,-8.31362 -53.47113,-7.67055 -19.97343,0.67301 -33.59695,3.46907 -61.45097,12.61209 -31.86329,10.45905 -52.82458,14.96193 -80.223,17.23344 -11.60853,0.96243 -48.13659,0.50334 -56.64062,-0.71187 -2.94643,-0.42104 -7.76786,-1.1087 -10.71428,-1.52814 -61.79528,-8.79688 -122.53987,-37.73146 -180.71429,-86.0799 -7.78777,-6.47237 -12.82889,-11.04714 -12.82889,-11.04714 0,0 0.28398,-4.40822 0.67404,-8.9631 0.40088,-4.68119 1.23195,-12.04696 1.84683,-16.36839 1.10002,-7.73101 6.49527,-32.22566 6.49527,-32.22566 0,0 4.12284,3.30034 8.72354,7.73467 18.69089,18.01499 41.41964,35.40381 64.73207,49.52379 12.8076,7.75738 37.10876,19.90627 49.81845,24.90578 27.23543,10.71338 56.89883,18.05446 85.89583,21.25748 13.25255,1.46387 52.3056,1.24649 65.35715,-0.36381 29.51698,-3.6418 48.8847,-8.73613 86.07142,-22.63953 52.42059,-19.59904 92.47666,-17.84104 139.64286,6.12874 12.39901,6.30115 24.32509,13.47681 46.78572,28.14993 29.774,19.45083 33.15347,21.85897 33.15347,21.85897 l -20.97567,59.21014 c 0,0 -11.51709,-7.18991 -24.6778,-15.39412 z"
     fill="#5bcffa"
     stroke="#5bcffa"
     stroke-width="1.79999995" />
  <path
     id="path6066"
     d="m 706.38585,544.96154 c -38.08891,-25.1423 -56.18136,-35.45822 -75.15756,-42.85318 -17.54471,-6.83712 -32.20952,-9.90023 -50.23531,-10.49291 -25.23251,-0.82963 -46.11851,3.42319 -79.64286,16.21694 -36.72213,14.01412 -66.60843,20.12193 -103.57143,21.1667 -78.30237,2.21327 -155.8557,-26.32181 -221.39473,-81.4603 -3.32068,-2.7937 -10.49911,-9.2263 -15.95208,-14.29466 -6.33644,-5.88951 -10.36032,-9.14856 -10.36032,-9.14856 0,0 2.06134,-7.03054 4.07699,-13.46212 5.06185,-16.15142 13.52611,-37.19198 13.52611,-37.19198 0,0 5.32995,5.19552 10.95255,10.56347 28.79866,27.49433 51.69961,43.84221 83.02897,59.27036 66.48571,32.74089 142.29434,41.46014 212.55109,24.44687 12.49195,-3.02503 34.03967,-10.32836 47.14285,-15.97849 31.5438,-13.60176 52.58138,-19.08552 77.14286,-20.10843 27.01609,-1.12515 53.35257,5.96481 81.64869,21.98038 14.17,8.02021 70.88682,48.97762 70.88682,48.97762 l -20.58072,58.30357 c 0,0 -10.97042,-7.29364 -24.06192,-15.93528 z"
     fill="#f5abb9"
     stroke="#f5abb9"
     stroke-width="1.79999995" />
  <path
     id="path6068"
     d="m 755.27869,425.59069 c -32.03375,-24.53538 -47.52017,-34.82504 -65,-43.188 -20.99509,-10.04479 -37.65417,-13.96125 -59.64285,-14.02172 -27.04811,-0.0744 -51.98407,6.39657 -87.79237,22.78234 -16.49848,7.54966 -24.1076,10.58898 -36.85049,14.71923 -18.07085,5.85718 -37.17686,9.95239 -57.85714,12.4012 -13.1486,1.55696 -50.41252,1.78204 -63.21429,0.38183 -40.24878,-4.4023 -74.05241,-13.71064 -106.98644,-29.46034 -18.42832,-8.81279 -36.11713,-19.80443 -51.22784,-31.83244 -7.79146,-6.20194 -28.54823,-26.02224 -32.62879,-31.15669 l -2.36014,-2.38769 5.38094,-9.04089 c 2.85683,-4.79994 8.69768,-14.16789 13.04084,-20.78148 l 7.86509,-11.89844 4.66038,5.11273 c 16.10698,17.67039 32.8986,31.43674 54.252,42.97164 72.91035,39.38542 167.5901,47.8365 245.2141,21.88772 13.38497,-4.47444 21.90669,-8.05849 40.647,-17.09527 17.71235,-8.54108 32.65895,-14.79554 43.37996,-18.15251 41.54551,-13.00877 75.2685,-11.36434 108.40576,5.28618 18.0044,9.04669 30.48978,17.84885 61.59774,43.42626 l 18.20492,14.56498 -9.45888,28.29216 c -5.11097,15.28728 -12.18391,32.62502 -12.18391,32.62502 0,0 1.01438,-1.29689 -17.44559,-15.43582 z"
     fill="#f5abb9"
     stroke="#f5abb9"
     stroke-width="1.79999995" />
  <path
     id="path6070"
     d="m 786.70727,371.94885 c -38.53115,-31.99003 -53.5831,-42.74788 -72.85715,-52.07209 -43.89315,-21.23419 -90.07278,-17.25998 -150.35714,12.93971 -40.16571,20.12117 -76.688,29.7765 -121.69454,32.1722 -63.96461,3.40482 -133.554,-14.68676 -182.23403,-47.3765 -12.89331,-8.65815 -21.09309,-15.81821 -33.17109,-28.96502 l -7.36199,-8.01346 6.08331,-8.01575 c 6.40898,-8.44489 18.15009,-22.31684 21.81949,-25.77942 l 2.17178,-2.04937 6.65782,6.71871 c 20.92565,21.11702 57.41659,39.36357 100.94354,50.47476 28.03709,7.15707 52.52022,10.16534 82.75737,10.16848 36.20956,0.004 65.72039,-4.65223 97.95691,-15.4549 14.23331,-4.76968 26.46829,-10.14963 48.93187,-21.51626 20.89808,-10.57449 36.30846,-17.06041 50.5485,-21.27485 47.78081,-14.14105 84.63018,-8.43605 123.6945,19.15029 9.34179,6.59696 19.99052,15.40876 38.64364,31.97753 16.39438,14.56243 16.46731,14.64455 16.46731,14.64455 0,0 -5.1781,16.26401 -10.38505,30.99615 -5.20693,14.73214 -10.38674,27.77804 -10.38674,27.77804 0,0 -3.51403,-2.58881 -8.22831,-6.5028 z"
     fill="#5bcffa"
     stroke="#5bcffa"
     stroke-width="1.79999995" />
  <path
     id="path6877"
     d="m 733.48404,487.0434 c -34.99847,-24.82994 -48.1282,-33.14502 -65.88459,-41.72481 -12.62742,-6.10151 -24.60745,-10.26735 -37.07037,-12.89054 -11.99445,-2.52459 -32.4698,-3.17506 -45.60753,-1.44888 -18.96054,2.49126 -38.31006,8.15045 -61.07143,17.8617 -16.24255,6.92997 -27.63632,11.07002 -40.36845,14.66832 -29.49026,8.33441 -61.69404,11.97788 -94.2744,10.66599 -66.5619,-2.68019 -131.53935,-26.83814 -183.18551,-68.10649 -7.70395,-6.15592 -28.15508,-24.71346 -34.87555,-31.64639 l -2.70391,-2.7894 2.44354,-5.65822 c 4.26777,-9.88238 8.95708,-19.63723 14.53914,-30.24478 l 5.42065,-10.30085 10.78796,11.04046 c 16.08808,16.46464 25.25745,24.15413 42.28047,35.45665 37.91746,25.1755 84.47558,41.63686 135.29321,47.83504 8.17301,0.99686 15.7798,1.25979 36.07142,1.24684 22.67235,-0.0145 27.12424,-0.20779 37.63296,-1.63412 33.13037,-4.49673 58.18166,-11.79048 89.07054,-25.93314 25.21749,-11.54597 42.13003,-17.35875 61.45248,-21.12098 8.69051,-1.69211 11.41267,-1.89407 26.12974,-1.9386 18.05689,-0.0546 22.89986,0.54786 37.02877,4.60649 18.04822,5.18447 35.59096,14.21912 57.64521,29.68774 11.34813,7.95946 48.48589,36.35108 48.48589,36.35108 l -21.11359,59.69042 c 0,0 -8.11372,-6.56977 -18.12665,-13.67353 z"
     fill="#ffffff"
     stroke="#ffffff"
     stroke-width="1.79999995" />
  <text
     x="470"
     y="985"
     font-size="80"
     id="text5354">🦈</text>
</svg>
