<?xml version="1.0" encoding="UTF-8"?>
<!-- Generator: Adobe Illustrator 24.2.0, SVG Export Plug-In . SVG Version: 6.00 Build 0)  -->
<svg version="1.1" id="Layer_1" xmlns="http://www.w3.org/2000/svg" xmlns:xlink="http://www.w3.org/1999/xlink" x="0px" y="0px" viewBox="0 0 600 483" style="enable-background:new 0 0 600 483;" xml:space="preserve" data-ember-extension="1">
<style type="text/css">
	.st0{fill:#3A82E4;}
	.st1{fill:#284DA0;}
	.st2{fill:#24366E;}
	.st3{fill:#FFFFFF;}
	.st4{fill:#0C1C2C;}
</style>
<g>
	<g>
		<path class="st0" d="M364.9,185.5L300.8,0.4c-2.7-0.1-5.5,0.4-7.6,1.6L176.9,69.1c-1.9,1.1-3.5,2.9-4.8,5L300,148L364.9,185.5z"/>
		<path class="st1" d="M428.5,75.4c-1.2-2.6-3.2-5-5.4-6.3L306.7,2c-1.7-1-3.8-1.5-5.9-1.6l64.1,185.1L428.5,75.4z"/>
		<path class="st2" d="M429.9,80.8v134.4c0,2.5-1.1,5.4-2.7,7.8H300l64.9-37.5l63.6-110.1C429.3,77.2,429.9,79.1,429.9,80.8z"/>
		<path class="st2" d="M300,148l-64.9,37.5l-63,36.3c-1.2-2.1-2-4.5-2-6.6V80.8c0-2.1,0.8-4.5,2-6.6L300,148z"/>
		<path class="st0" d="M235.1,185.5l63.6,110.1c2.9,0.2,5.9-0.3,8.1-1.5l116.4-67.2c1.5-0.9,2.9-2.3,4-3.9H300L235.1,185.5z"/>
		<path class="st1" d="M172.1,221.9c1.2,2.1,2.9,4,4.8,5l116.4,67.2c1.5,0.9,3.4,1.4,5.4,1.5l-63.6-110.1L172.1,221.9z"/>
		<polygon class="st3" points="235.1,185.5 300,223 364.9,185.5 300,148   "/>
	</g>
	<g>
		<path class="st4" d="M84.9,395l-33,39.7c-1.1,1.5-1.8,1.5-3.1,0l-33-39.7c-0.5-0.6-0.8-0.5-0.8,0v82.8c0,1.6-1.3,3.1-2.9,3.1H2.9    c-1.6,0-2.9-1.5-2.9-3.1v-104c0-1.6,1.3-3.1,2.9-3.1h9.7c1.1,0,2.3,0.8,3.2,1.9l33.5,41.6c1,1.3,1.3,1.1,2.1,0l34-41.8    c0.8-1,2.1-1.8,3.2-1.8h8.9c1.6,0,3.1,1.5,3.1,3.1v104c0,1.6-1.3,3.1-2.9,3.1h-9.2c-1.6,0-2.9-1.5-2.9-3.1V395    C85.7,394.5,85.4,394.3,84.9,395z"/>
		<path class="st4" d="M221.7,480.8c-1.8,0-2.8-0.8-3.7-3.1l-8.4-19.8c-0.6-1.5-1.3-1.8-3.1-1.8h-51.7c-1.5,0-2.4,0.8-3.1,2.3    l-8.4,19.8c-0.8,1.8-2.3,2.6-4.1,2.6h-9.4c-1.9,0-3.1-1.8-2.1-4l45.7-103.5c0.8-1.9,2.4-2.6,4.4-2.6h8.4c1.6,0,2.4,1.3,3.1,2.8    l44.9,103.5c0.6,1.6-0.2,3.9-2.3,3.9H221.7z M181.3,391.6c-0.3-0.6-0.6-0.6-1,0l-21.5,50.2c-0.5,1.3,0.2,1.9,1.3,1.9h41.5    c1,0,1.6-0.8,1.1-1.9L181.3,391.6z"/>
		<path class="st4" d="M344.3,480.8c-1.1,0-2.1-0.6-3.1-1.9l-63.3-85.1c-0.5-0.6-0.8-0.6-0.8,0l0.2,83.9c0,1.6-1.3,3.1-2.9,3.1h-8.6    c-1.6,0-2.9-1.5-2.9-3.1v-104c0-1.6,1.3-3.1,2.9-3.1h10c1.3,0,2.3,0.6,3.4,2.1l63,83.1c0.3,0.5,0.6,0.5,0.6-0.2l-0.2-82    c0-1.6,1.3-3.1,2.9-3.1h8.6c1.6,0,2.9,1.5,2.9,3.1v104c0,1.6-1.5,3.1-3.1,3.1H344.3z"/>
		<path class="st4" d="M469.8,480.8c-1.5,0-2.6-1-3.4-2.1l-24-38.7c-0.8-1.5-1.6-2.4-3.1-2.4h-23c-1.8,0-2.9,1.3-2.9,3.1v37.1    c0,1.6-1.3,3.1-2.9,3.1h-9.4c-1.6,0-2.9-1.5-2.9-3.1v-104c0-1.6,1.3-3.1,2.9-3.1h42.4c20.9,0,38.9,8.1,38.9,32.9    c0,18.3-12.2,26.9-21.7,30.9c-1.9,0.8-3.2,1.8-1.9,4.1l24,38.1c1.5,2.3,0.3,4.2-1.6,4.2H469.8z M447.6,424.4    c9.1,0,18.6-7.5,18.6-20.3c0-12-8.6-20.1-20.6-20.1h-29.3c-1.8,0-2.9,1.3-2.9,2.9v34.3c0,1.6,1.1,3.1,2.9,3.1H447.6z"/>
		<path class="st4" d="M585.4,402.9c-1.6,0-2.4-0.6-2.9-2.3c-4.1-11.2-14.1-17.7-29-17.7c-16,0-26.7,6.2-26.7,15.9    c0,11.5,14.3,14.6,30.9,17.3c20.6,3.7,42.3,9.2,42.3,32.6c0,23-21.1,33.4-44.6,33.4c-21.1,0-41.3-8.6-44.6-30.9    c-0.3-1.9,0.6-2.8,2.6-2.8h10.2c1.8,0,2.6,0.6,2.9,2.1c2.9,11.2,14.7,18,30,18c14.7,0,27.7-6,27.7-18.5    c0-14.6-16.8-17.7-32.1-20.1c-20.4-3.2-40.7-7.9-40.7-29c0-19.9,18.5-31.6,43.3-31.6c22.2,0,40.3,10.7,43.6,30.6    c0.3,1.8-0.2,2.9-2.1,2.9H585.4z"/>
	</g>
</g>
</svg>