<?xml version="1.0" encoding="UTF-8" standalone="no"?>
<svg xmlns="http://www.w3.org/2000/svg" width="719" height="290" version="1.2">
  <linearGradient id="a" x1="0" x2="240" y1="0" y2="0" gradientUnits="userSpaceOnUse">
    <stop offset="0" stop-color="#8767aa"/>
    <stop offset="1" stop-color="#392874"/>
  </linearGradient>
  <g fill="#392874" aria-label="Prompt Payment Code" font-family="Sofia Pro" font-size="120" font-weight="400">
    <path style="-inkscape-font-specification:'Sofia Pro'" d="M253.258 83V.324h34.16q7.031 0 12.598 2.344 5.566 2.344 8.906 6.328 3.398 3.926 5.098 8.79 1.757 4.804 1.757 10.136 0 5.39-1.757 10.254-1.7 4.804-5.098 8.73-3.34 3.867-8.906 6.211-5.567 2.285-12.598 2.285h-14.121V83zm20.039-44.883h13.183q4.57 0 6.797-2.988 2.227-2.988 2.227-7.207 0-4.16-2.227-7.09-2.168-2.988-6.797-2.988h-13.183zM321.828 83V27.102h18.106v13.77q2.05-7.56 6.914-11.368 4.863-3.867 10.722-3.867 4.922 0 8.262 1.582l-4.629 17.988q-3.984-1.465-8.672-1.465-3.867 0-6.27 1.7-2.402 1.64-3.866 6.386-1.465 4.688-1.465 12.832V83zM366.55 54.934q0-6.504 2.403-12.012 2.461-5.567 6.504-9.317 4.043-3.75 9.434-5.859 5.39-2.11 11.25-2.11 5.976 0 11.425 2.11 5.45 2.11 9.551 5.86 4.102 3.75 6.563 9.316 2.46 5.508 2.46 12.012 0 8.554-4.218 15.293-4.16 6.738-10.957 10.312-6.797 3.516-14.824 3.516-7.91 0-14.649-3.516-6.68-3.574-10.84-10.312-4.101-6.739-4.101-15.293zm21.387-8.204q-3.398 3.399-3.398 8.204 0 4.804 3.399 8.203 3.398 3.398 8.203 3.398 4.804 0 8.203-3.398 3.457-3.399 3.457-8.203 0-4.805-3.457-8.204-3.399-3.457-8.203-3.457-4.805 0-8.204 3.457zM433.832 83V27.102h19.102v8.73q1.347-4.863 5.625-7.5 4.336-2.695 8.613-2.695 15.41 0 20.039 11.894 2.988-6.035 7.676-8.965 4.746-2.93 9.023-2.93 12.188 0 17.227 6.915 5.097 6.914 5.097 20.683V83h-19.101V53.82q0-5.097-2.754-7.382-2.754-2.344-6.328-2.344-3.692 0-6.094 2.226-2.344 2.227-2.344 7.266V83h-19.16V53.82q0-5.097-2.812-7.382-2.754-2.344-6.329-2.344-3.632 0-6.035 2.226-2.343 2.227-2.343 7.266V83zM536.387 110.598V27.102h17.988v8.027q2.285-4.688 6.914-7.09 4.688-2.402 9.668-2.402 5.215 0 10.078 2.05 4.922 2.051 8.73 5.743 3.81 3.633 6.094 9.258 2.344 5.566 2.344 12.128 0 6.563-2.344 12.188-2.285 5.566-6.093 9.258-3.809 3.691-8.73 5.742-4.864 2.05-10.079 2.05-9.902 0-15.469-6.21v32.754zm19.101-55.547q0 4.746 3.399 8.027 3.398 3.223 8.203 3.223t8.203-3.399q3.457-3.398 3.457-8.203 0-4.804-3.457-8.203-3.398-3.457-8.203-3.457-4.746 0-8.203 3.633-3.399 3.574-3.399 8.379zM601.148 41.105V27.102h10.196V7.062h18.867v20.04h11.719v14.003h-11.72V83h-18.866V41.105zM253.258 183.48v-82.676h34.16q7.031 0 12.598 2.344 5.566 2.343 8.906 6.328 3.398 3.926 5.098 8.789 1.757 4.804 1.757 10.137 0 5.39-1.757 10.253-1.7 4.805-5.098 8.73-3.34 3.868-8.906 6.212-5.567 2.285-12.598 2.285h-14.121v27.598zm20.039-44.883h13.183q4.57 0 6.797-2.988 2.227-2.989 2.227-7.207 0-4.16-2.227-7.09-2.168-2.989-6.797-2.989h-13.183zM318.605 155.413q0-6.562 2.286-12.187 2.343-5.625 6.152-9.258 3.809-3.691 8.672-5.742 4.863-2.11 10.078-2.11 4.453 0 8.73 1.993 4.336 1.933 6.797 5.449v-5.977h19.043v55.899H361.32v-6.387q-2.52 3.574-6.68 5.508-4.16 1.933-8.847 1.933-7.031 0-13.184-3.398-6.093-3.457-10.078-10.195-3.926-6.797-3.926-15.528zm22.793-8.086Q338 150.726 338 155.53q0 4.805 3.398 8.204 3.457 3.398 8.262 3.398 4.805 0 8.203-3.398 3.457-3.399 3.457-8.204 0-4.804-3.457-8.203-3.398-3.457-8.203-3.457t-8.262 3.457zM383.602 127.581h20.859l10.957 27.07 10.43-27.07h20.273l-34.57 83.496h-20.04l14.063-35.039zM449.887 183.48V127.58h19.101v8.73q1.348-4.863 5.625-7.5 4.336-2.695 8.614-2.695 15.41 0 20.039 11.895 2.988-6.035 7.675-8.965 4.747-2.93 9.024-2.93 12.187 0 17.226 6.914 5.098 6.914 5.098 20.684v29.766h-19.101V154.3q0-5.098-2.754-7.383-2.754-2.344-6.329-2.344-3.69 0-6.093 2.227-2.344 2.227-2.344 7.266v29.414h-19.16V154.3q0-5.098-2.813-7.383-2.754-2.344-6.328-2.344-3.633 0-6.035 2.227-2.344 2.227-2.344 7.266v29.414zM553.262 170.53q-4.043-6.796-4.043-15.351t4.101-15.293q4.102-6.738 10.84-10.254 6.738-3.516 14.766-3.516 8.027 0 14.59 3.399 6.562 3.398 10.488 10.02 3.984 6.562 3.984 15.117 0 1.406-.351 6.152h-40.078q.527 3.808 4.277 6.152 3.75 2.344 8.555 2.344 6.738 0 10.664-4.688 1.289 1.055 6.68 4.864 5.449 3.808 6.562 4.629-4.102 5.449-11.016 7.968-6.855 2.461-14.355 2.461-8.028 0-14.824-3.574-6.739-3.633-10.84-10.43zm14.297-20.39h22.324q-.645-2.52-2.051-4.278-1.406-1.816-3.223-2.578-1.757-.82-3.164-1.113-1.406-.352-2.754-.352-1.347 0-2.812.352-1.465.293-3.281 1.113-1.758.762-3.164 2.578-1.348 1.758-1.875 4.278zM614.918 183.48V127.58h19.102v8.73q.878-3.28 3.808-5.683 2.93-2.46 6.035-3.457 3.164-1.055 5.86-1.055 11.074 0 16.699 7.207 5.625 7.149 5.625 20.391v29.766h-19.102V154.3q0-5.098-2.812-7.383-2.754-2.344-6.328-2.344-3.868 0-6.856 2.286-2.93 2.285-2.93 7.207v29.414zM677.395 141.585v-14.004h10.195v-20.039h18.867v20.04h11.719v14.003h-11.719v41.895H687.59v-41.895zM248.57 242.65q0-8.671 3.34-16.523 3.34-7.851 8.965-13.535 5.625-5.683 13.418-9.023 7.852-3.399 16.406-3.399 10.899 0 20.156 5.156 9.317 5.098 15.118 13.829l-16.7 11.66q-2.988-4.746-7.91-7.559-4.922-2.87-10.664-2.87-9.14 0-15.527 6.503-6.328 6.445-6.328 15.762 0 9.258 6.328 15.761 6.328 6.446 15.527 6.446 5.801 0 10.723-2.754 4.922-2.813 7.969-7.559l16.464 11.543q-5.8 8.73-15.058 13.828-9.2 5.098-20.098 5.098-8.554 0-16.406-3.34-7.793-3.398-13.418-9.082-5.625-5.683-8.965-13.535t-3.34-16.406zM329.27 255.893q0-6.504 2.402-12.012 2.46-5.566 6.504-9.316 4.043-3.75 9.433-5.86 5.391-2.109 11.25-2.109 5.977 0 11.426 2.11 5.45 2.109 9.55 5.859 4.102 3.75 6.563 9.316 2.461 5.508 2.461 12.012 0 8.555-4.218 15.293-4.16 6.738-10.957 10.312-6.797 3.516-14.825 3.516-7.91 0-14.648-3.516-6.68-3.574-10.84-10.312-4.101-6.738-4.101-15.293zm21.386-8.203q-3.398 3.398-3.398 8.203t3.398 8.203q3.399 3.398 8.203 3.398 4.805 0 8.204-3.398 3.457-3.398 3.457-8.203t-3.458-8.203q-3.398-3.457-8.203-3.457-4.804 0-8.203 3.457zM393.328 255.893q0-6.563 2.285-12.188 2.344-5.625 6.153-9.257 3.808-3.692 8.671-5.743 4.864-2.109 10.079-2.109 9.609 0 15.527 6.621v-34.57h19.043v85.312h-17.988v-8.027q-2.227 4.629-6.856 6.855-4.629 2.227-9.726 2.227-7.032 0-13.184-3.398-6.094-3.457-10.078-10.196-3.926-6.797-3.926-15.527zm22.793-8.086q-3.398 3.398-3.398 8.203t3.398 8.203q3.457 3.399 8.262 3.399 4.805 0 8.203-3.399 3.457-3.398 3.457-8.203t-3.457-8.203q-3.398-3.457-8.203-3.457t-8.262 3.457zM466.82 271.01q-4.043-6.797-4.043-15.351 0-8.555 4.102-15.293 4.101-6.739 10.84-10.254 6.738-3.516 14.765-3.516 8.028 0 14.59 3.398 6.563 3.399 10.488 10.02 3.985 6.562 3.985 15.117 0 1.406-.352 6.153h-40.078q.528 3.808 4.278 6.152 3.75 2.344 8.554 2.344 6.739 0 10.664-4.688 1.29 1.055 6.68 4.863 5.45 3.809 6.562 4.63-4.101 5.449-11.015 7.968-6.856 2.461-14.356 2.461-8.027 0-14.824-3.574-6.738-3.633-10.84-10.43zm14.297-20.39h22.324q-.644-2.52-2.05-4.278-1.407-1.816-3.223-2.578-1.758-.82-3.164-1.113-1.406-.352-2.754-.352t-2.813.352q-1.464.293-3.28 1.113-1.759.762-3.165 2.578-1.347 1.758-1.875 4.277z"/>
  </g>
  <path fill="url(#a)" d="M55.004 167.749c-10.163 9.437 3.15 23.455 13.63 12.859 10.482-10.596 81.991-82.35 89.223-89.18 7.232-6.83 19.286 5.268 12.41 12.322-6.874 7.054-82.231 82.723-90.58 91.027-8.348 8.303 4.8 20.497 12.354 13.04 7.555-7.457 56.542-55.93 64.889-64.348 8.347-8.418 20.424 4.143 12.204 12.502-8.22 8.358-55.098 55.707-63.735 64.366-8.638 8.66 3.98 21.733 13.973 11.53 9.993-10.204 30.22-30.39 37.536-37.62 7.316-7.232 21.795 3.226 12.058 13.257-9.736 10.03-28.546 28.822-37.682 38.145-9.136 9.324 4.539 20.713 12.435 13.236 7.897-7.476 5.884-5.923 14.138-13.885s19.212 5.64 12.984 11.973c-6.228 6.333-5.928 6.097-14.409 14.6-8.48 8.503 4.686 20.375 12.773 12.52 8.086-7.856 59.424-58.878 62.37-61.887 2.946-3.01 4.769-3.914 4.79-9.223.022-5.308-.021-190.948.064-202.626.084-11.677-11.018-12.625-17.107-6.886-6.09 5.738-107.268 109.887-164.318 164.278z"/>
  <path fill="none" stroke="url(#a)" stroke-linecap="round" stroke-width="17" d="M12.753 223.496l25.76-25.632M64.271 223.244l-7.071 6.818M63.892 275.569l25.633-26.693M115.031 274.383l-6.44 6.692M35.355 251.78L9.344 278.045"/>
</svg>
