<?xml version="1.0" encoding="utf-8"?>
<svg version="1.1"  xmlns="http://www.w3.org/2000/svg"
	 viewBox="0 190 842 200" width="842" height="230">
<style type="text/css">
	.st0{fill:#25316A;}
	.st1{fill:url(#SVGID_1_);}
	.st2{fill:#5B5C87;}
</style>
<g>
	<path class="st0" d="M323.3,297.9l-17-30.4h-9.8v30.4h-21.6v-86.1h37.7c8.6,0,15.2,1.8,20.6,5.8c6.6,4.8,10.1,12.8,10.1,21.4
		c0,10.5-5.1,20.8-16.3,25.4l19.8,33.6H323.3z M309.7,228.7h-13.4v22.8h13.4c7.7,0,12.6-4.5,12.6-11.5
		C322.3,232.1,317,228.7,309.7,228.7z"/>
	<path class="st0" d="M356.6,297.9v-86.1h21.6v86.1H356.6z"/>
	<path class="st0" d="M432.3,268.1h-17.9v29.8h-21.5v-86.1h38.9c19.1,0,30.2,11.7,30.2,27.7C462,253.6,453.3,268.1,432.3,268.1z
		 M428.3,228.7h-13.9v22.8h13.9c7.4,0,12.6-3.9,12.6-11.6C440.8,232.5,436,228.7,428.3,228.7z"/>
	<path class="st0" d="M472.8,297.9v-86.1h63.4v17.5h-41.9v16.4h35.3v17.4h-35.3v17.1h42.1v17.6H472.8z"/>
	<path class="st0" d="M633.9,297.9l-33.7-50.6H600v50.6H580v-86.1h20.9l32.7,48.7h0.2v-48.7h20v86.1H633.9z"/>
	<path class="st0" d="M703.1,299.4c-19,0-36.7-9.5-36.7-31v-26.2c0-21.1,17.1-31.8,36.1-31.8c16.8,0,35,8.5,35,28.4v4.1h-20.3v-2.1
		c0-8.9-7.6-12.8-14.2-12.8c-7.6,0-15,4-15,13.8v26.1c0,8.8,6.4,13.9,15.2,13.9c6.6,0,14-3.7,14-12.8v-2.1h20.3v4.2
		C737.5,290.9,719.7,299.4,703.1,299.4z"/>
	<path class="st0" d="M784.1,299.4c-19,0-36.7-9.5-36.7-31v-26.2c0-21.1,17.1-31.8,36.1-31.8c16.8,0,35,8.5,35,28.4v4.1h-20.3v-2.1
		c0-8.9-7.6-12.8-14.2-12.8c-7.6,0-15,4-15,13.8v26.1c0,8.8,6.4,13.9,15.2,13.9c6.6,0,14-3.7,14-12.8v-2.1h20.3v4.2
		C818.5,290.9,800.7,299.4,784.1,299.4z"/>
</g>
<linearGradient id="SVGID_1_" gradientUnits="userSpaceOnUse" x1="50.2333" y1="394.3012" x2="208.0133" y2="236.5212">
	<stop  offset="0" style="stop-color:#25316A"/>
	<stop  offset="6.051821e-02" style="stop-color:#293269"/>
	<stop  offset="0.1216" style="stop-color:#343468"/>
	<stop  offset="0.183" style="stop-color:#453764"/>
	<stop  offset="0.2446" style="stop-color:#5B3C60"/>
	<stop  offset="0.3064" style="stop-color:#764459"/>
	<stop  offset="0.3684" style="stop-color:#964D4F"/>
	<stop  offset="0.4293" style="stop-color:#BF5A3D"/>
	<stop  offset="0.4872" style="stop-color:#F36C21"/>
	<stop  offset="1" style="stop-color:#9C9C9C"/>
</linearGradient>
<path class="st1" d="M184.5,272.6L184.5,272.6l0-59.6l-55.3-32l-55.3,32l0,59.5l0,0.1l-51.6,29.8l0,63.9l55.3,32l51.6-29.8
	l51.6,29.8l55.3-32l0-63.9L184.5,272.6z M129.1,300.1l-44-25.4l44-25.4l44,25.4L129.1,300.1z M81.3,281.3l44,25.4l0,50.8l-44-25.4
	L81.3,281.3z M132.9,306.7l44-25.4l0,50.8l-44,25.4L132.9,306.7z M81.3,217.3l47.8-27.6l47.8,27.6l0,50.8l-47.8-27.6l-47.8,27.6
	L81.3,217.3z M29.8,361.9l0-55.2l44-25.4l0,55.1l47.9,27.6l-44.1,25.4L29.8,361.9z M228.5,361.9l-47.8,27.6l-44.1-25.4l47.9-27.6
	l0-55.1l44,25.4L228.5,361.9z"/>
<g>
	<path class="st2" d="M294.5,364.9L280,327.1h-0.2c0.3,3,0.4,6.6,0.4,10.7v27.1h-4.6v-42.6h7.5l13.5,35.2h0.2l13.6-35.2h7.4v42.6h-5
		v-27.5c0-3.1,0.1-6.6,0.4-10.3h-0.2l-14.6,37.7H294.5z"/>
	<path class="st2" d="M342.3,365.5c-4.7,0-8.5-1.4-11.2-4.3c-2.7-2.9-4.1-6.9-4.1-12c0-5.2,1.3-9.2,3.8-12.3s5.9-4.5,10.2-4.5
		c4,0,7.2,1.3,9.5,4c2.3,2.6,3.5,6.1,3.5,10.4v3.1h-22c0.1,3.8,1,6.6,2.8,8.5s4.3,2.9,7.6,2.9c3.4,0,6.8-0.7,10.2-2.2v4.3
		c-1.7,0.7-3.3,1.3-4.9,1.6C346.3,365.3,344.5,365.5,342.3,365.5z M341,336.4c-2.6,0-4.6,0.8-6.1,2.5c-1.5,1.7-2.4,4-2.7,6.9h16.7
		c0-3.1-0.7-5.4-2-7C345.5,337.2,343.5,336.4,341,336.4z"/>
	<path class="st2" d="M403,364.9v-20.8c0-2.5-0.5-4.5-1.6-5.7c-1.1-1.3-2.8-1.9-5.1-1.9c-3,0-5.2,0.9-6.7,2.6
		c-1.4,1.7-2.2,4.4-2.2,8v17.8h-4.8v-20.8c0-2.5-0.5-4.5-1.6-5.7c-1.1-1.3-2.8-1.9-5.1-1.9c-3,0-5.3,0.9-6.7,2.7
		c-1.4,1.8-2.1,4.8-2.1,8.9v16.8h-4.8v-32h3.9l0.8,4.4h0.2c0.9-1.6,2.2-2.8,3.9-3.6c1.7-0.9,3.5-1.3,5.6-1.3c5,0,8.3,1.8,9.8,5.4
		h0.2c1-1.7,2.3-3,4.1-4s3.9-1.5,6.2-1.5c3.6,0,6.3,0.9,8.1,2.8c1.8,1.9,2.7,4.8,2.7,8.9v20.8H403z"/>
	<path class="st2" d="M432.7,332.4c4.2,0,7.5,1.4,9.8,4.3c2.3,2.9,3.5,6.9,3.5,12.2s-1.2,9.3-3.5,12.2c-2.3,2.9-5.6,4.4-9.8,4.4
		c-2.1,0-4-0.4-5.7-1.2c-1.7-0.8-3.2-1.9-4.3-3.5h-0.3l-1,4.1h-3.5v-45.4h4.8v11c0,2.5-0.1,4.7-0.2,6.6h0.2
		C424.9,334,428.3,332.4,432.7,332.4z M432,336.5c-3.3,0-5.7,0.9-7.1,2.8c-1.5,1.9-2.2,5.1-2.2,9.6c0,4.5,0.7,7.7,2.2,9.6
		c1.5,1.9,3.9,2.9,7.2,2.9c3,0,5.2-1.1,6.6-3.3c1.5-2.2,2.2-5.3,2.2-9.3c0-4.2-0.7-7.3-2.2-9.3C437.3,337.5,435.1,336.5,432,336.5z"
		/>
	<path class="st2" d="M467.9,365.5c-4.7,0-8.5-1.4-11.2-4.3c-2.7-2.9-4.1-6.9-4.1-12c0-5.2,1.3-9.2,3.8-12.3c2.5-3,5.9-4.5,10.2-4.5
		c4,0,7.2,1.3,9.5,4c2.3,2.6,3.5,6.1,3.5,10.4v3.1h-22c0.1,3.8,1,6.6,2.8,8.5s4.3,2.9,7.6,2.9c3.4,0,6.8-0.7,10.2-2.2v4.3
		c-1.7,0.7-3.3,1.3-4.9,1.6C471.9,365.3,470.1,365.5,467.9,365.5z M466.6,336.4c-2.6,0-4.6,0.8-6.1,2.5c-1.5,1.7-2.4,4-2.7,6.9h16.7
		c0-3.1-0.7-5.4-2-7C471.1,337.2,469.1,336.4,466.6,336.4z"/>
	<path class="st2" d="M502.5,332.4c1.4,0,2.7,0.1,3.8,0.3l-0.7,4.5c-1.3-0.3-2.5-0.4-3.5-0.4c-2.6,0-4.8,1-6.6,3.1
		c-1.8,2.1-2.8,4.7-2.8,7.8v17.1h-4.8v-32h4l0.6,5.9h0.2c1.2-2.1,2.6-3.7,4.3-4.8C498.7,332.9,500.5,332.4,502.5,332.4z"/>
</g>
</svg>
