<?xml version="1.0" encoding="UTF-8" standalone="no"?>
<!-- Created with Inkscape (http://www.inkscape.org/) -->

<svg
   xmlns="http://www.w3.org/2000/svg"
   version="1.2"
   baseProfile="tiny"
   width="205.35533"
   height="400.01804">
  <g
     transform="matrix(3.7795276,0,0,3.7795276,-171.72687,-592.96142)"
     style="opacity:1"
     id="layer3">
    <path
       style="opacity:1;fill:#2888ea;fill-opacity:1;stroke:#dc0000;stroke-width:0.26458332;stroke-linecap:round;stroke-linejoin:round;stroke-miterlimit:4;stroke-dasharray:none;stroke-opacity:1"
       d="m 93.395552,262.19666 c 0,0 -0.934008,-2.54916 -2.00209,-4.05734 -0.637836,-0.90064 -8.068166,-5.24096 -9.19877,-5.8719 -3.963925,-2.2121 -7.395265,-3.69461 -8.158606,-4.21534 -1.523718,-1.03944 -2.101099,-1.75008 -2.4096,-2.62812 -0.307705,-0.87578 -0.283483,-2.02571 -0.04725,-2.99428 0.180867,-0.74156 0.425225,-1.32291 1.13393,-2.17336 0.708705,-0.85045 1.53553,-1.65365 2.149741,-2.4096 0.61421,-0.75595 0.992186,-1.18117 0.992186,-1.18117 0,0 0.838635,0.82682 1.015812,1.35835 0.177177,0.53153 0.555151,2.50409 0.555151,2.50409 0,0 1.560987,-1.37042 2.019811,-2.17336 0.489256,-0.8562 0.714229,-1.23685 0.90203,-2.09163 0.195187,-0.8884 0.434312,-3.6332 0.451019,-4.07586 0.0096,-0.25535 -0.0334,-1.57021 -0.0167,-1.93771 0.0167,-0.36749 0.342442,-1.62867 0.53454,-2.02122 0.180603,-0.36906 0.785752,-1.83163 1.369755,-3.17383 0.584003,-1.3422 1.454445,-3.21252 2.121453,-4.84426 0.705497,-1.7259 1.753956,-4.44335 1.987817,-5.22846 0.233859,-0.7851 1.353053,-4.2262 1.436574,-4.57699 0.08352,-0.35079 1.018967,-4.61876 1.135896,-5.26187 0.119563,-0.6576 0.50113,-4.07586 0.567947,-4.57699 0.06623,-0.49673 0.08224,-3.35482 0.100226,-3.72507 0.02646,-0.54472 -0.03341,-2.28849 -0.03341,-2.65599 -2e-6,-0.33575 -0.400907,-2.90655 -0.250565,-3.40769 0.150336,-0.50112 0.46772,-0.98555 0.7684,-1.26953 0.300676,-0.28397 1.336345,-1.1693 1.77066,-1.41987 0.434312,-0.25056 1.469981,-0.71829 1.770661,-0.7851 0.300676,-0.0668 1.202713,-0.23386 1.503391,-0.18375 0.300677,0.0501 1.356126,0.45063 1.68714,0.56795 0.65982,0.23386 1.987817,1.46998 1.987817,1.46998 0,0 -0.201288,-1.33203 -0.250566,-1.5702 -0.400907,-1.93771 -1.177656,-3.47451 -1.737251,-4.09257 -0.8562,-0.94565 -2.546217,-3.00867 -3.215586,-3.88376 -0.91049,-1.19031 -4.092597,-3.97137 -4.752386,-4.51852 -0.684882,-0.56796 -2.357026,-1.67704 -2.875872,-2.0307 -0.53029,-0.36146 -4.511069,-4.41879 -4.841537,-4.8849 -0.559597,-0.78928 -3.116121,-2.9469 -3.649901,-3.2323 -1.332933,-0.71268 -3.090306,-1.88759 -3.332516,-2.09639 -0.134496,-0.11594 -2.016333,-1.45614 -2.667802,-1.72341 -0.651469,-0.26727 -1.921344,-0.77567 -2.088043,-0.98556 -0.353828,-0.44552 -0.338978,-0.48991 -0.57284,-0.65696 -0.233858,-0.16704 -2.204976,-0.83521 -2.672697,-1.03566 -0.467721,-0.20046 -1.219415,-0.70994 -2.505651,-0.9271 -1.286234,-0.21715 -2.54767,-0.027 -3.027663,0.0459 -0.682814,0.1038 -2.802152,0.81434 -3.269876,0.98138 -0.467718,0.16705 -4.100914,1.85418 -4.535227,2.10475 -0.434311,0.25056 -2.129804,1.44492 -2.564118,1.76231 -0.43431,0.31738 -1.039843,0.67652 -1.273707,0.92709 -0.233858,0.25056 -0.910422,0.99412 -1.186008,1.62032 -0.336305,0.76416 -0.480253,1.82912 -0.496956,2.39707 -0.0167,0.56795 0.384203,4.32643 0.400905,4.6104 0.0167,0.28397 1.018965,5.31616 1.085784,5.78389 0.06682,0.46772 0.530363,3.21558 0.580475,3.58308 0.05011,0.36749 0.366256,4.5744 0.405082,4.98206 0.04176,0.43849 0.335112,2.63108 0.246389,3.41187 -0.06264,0.55125 -0.179576,0.71411 -0.463546,1.04819 -0.283977,0.33409 -0.505306,0.52619 -0.755872,0.8561 -0.25339,0.33363 -0.797631,1.33217 -0.897858,1.73308 -0.100224,0.4009 -0.133632,0.55124 -0.183748,0.73499 -0.05012,0.18375 -0.200455,7.7007 0.05011,8.68626 0.250565,0.98556 1.202714,3.39098 1.386462,3.74177 0.183747,0.35079 0.584654,1.01897 0.902033,1.35305 0.317385,0.33409 0.488603,0.37585 0.488603,0.37585 0,0 0.351364,-0.36803 0.764223,-0.91038 0.489532,-0.64307 1.30294,-1.62033 1.30294,-1.62033 l 4.693921,-12.08559 c -0.07356,1.8053 -0.373136,5.05728 0.258917,8.05984 0.128057,0.60834 0.46053,2.23553 0.593005,2.71447 0.122786,0.44391 0.96885,1.99616 0.96885,1.99616 0,0 0.400905,-1.23611 0.60971,-1.97946 0.221537,-0.78867 1.55969,-3.13719 2.021226,-3.6499 0.346494,-0.38492 2.179916,-2.47224 2.580821,-2.58917 0,0 0.108571,2.67269 0.09187,3.05689 -0.0167,0.38421 0.148335,1.58264 0.12529,2.33861 -0.04176,1.36976 0.384197,3.40768 0.751695,4.30972 0.367494,0.90203 1.073366,3.26605 1.286233,3.92552 0.213503,0.66144 0.684878,2.00452 0.818512,2.57247 0.133635,0.56795 0.476238,2.90873 0.534541,3.69166 0.05846,0.78511 0.04255,2.91862 0.05847,3.92553 0.01614,1.02102 -0.187013,2.32218 -0.375847,3.07359 -0.384542,1.53017 -1.26953,3.44945 -1.653731,4.05916 -0.386643,0.61359 -1.772418,2.44097 -2.154859,2.90655 -0.384201,0.46772 -0.960501,1.19437 -1.177658,1.47834 -0.217157,0.28398 -0.803066,0.96097 -1.010613,1.26118 -0.24574,0.35546 -0.945529,2.24674 -1.227768,3.49956 0,0 0.511297,-0.37845 1.077429,-0.62642 0.448841,-0.1966 0.867345,-0.54852 1.753958,-0.21715 0,0 -1.537101,2.31634 -1.737252,2.65599 -0.275623,0.46772 -0.818516,1.35305 -1.353053,1.9377 -0.534541,0.58466 -1.813457,2.27639 -2.171565,2.65599 -0.41761,0.44267 -1.479153,2.39304 -1.653728,2.68941 -0.359142,0.6097 -0.926128,2.08321 -1.169304,2.93996 -0.243065,0.85636 -0.123113,3.97673 -0.0167,4.37653 0.105794,0.39747 0.183748,2.07135 0.734992,2.92327 0.551243,0.85192 1.044701,1.66735 1.469982,2.20497 0.442667,0.55959 1.620323,1.99617 1.620323,1.99617 0,0 -1.212053,-1.86269 -1.236124,-2.8648 -0.0167,-0.69515 0.212917,-1.01205 0.668174,-1.78736 0.30086,-0.51237 0.609461,-1.02875 1.135896,-1.57021 0.589278,-0.6061 1.5368,-1.28623 2.07134,-1.46998 0.534538,-0.18375 1.102485,-0.0668 1.286233,-0.0334 0.183747,0.0334 1.874093,0.47677 2.589175,0.83522 0.731111,0.36648 3.169902,1.34831 3.511792,1.45142 0.338976,0.10224 3.203352,1.07094 3.57085,1.13775 0.367493,0.0668 2.840231,0.83117 3.474503,0.91874 0.347889,0.048 3.17508,0.46814 3.608139,0.50113 0.930407,0.0709 2.589612,0.31499 3.006783,0.33409 1.031818,0.0473 2.278708,-0.13245 2.693452,-0.11102 0.361588,0.23993 1.037667,0.66379 1.616269,0.99635 0.585564,0.33656 1.501779,0.85083 3.434378,1.48906 0.786608,0.25977 2.580725,0.54071 2.580725,0.54071 z"
       id="path4838"/>
    <path
       id="path4843"
       d="m 82.398808,173.30729 c 1.464659,1.1103 4.677455,4.65383 5.173549,5.38616 0.496094,0.73233 2.244235,3.35454 2.598586,4.15774 0.354354,0.8032 1.441035,2.78757 1.6064,3.26004 0.165364,0.47247 0.448847,1.67727 0.448847,1.67727 l -2.433222,2.76395 0.236235,9.73289 -0.590587,5.38616 -1.322916,3.23642 c 0,0 -0.330729,-0.42522 -0.188989,-1.67727 0.14174,-1.25204 1.063058,-6.21298 1.063058,-6.21298 0,0 -0.283482,-1.53553 -0.25986,-2.36235 0.02363,-0.82682 0.118118,-1.15755 -0.04725,-1.7009 -0.165364,-0.54334 -1.488281,-5.17355 -1.630021,-5.85863 -0.141743,-0.68508 -0.330729,-2.66945 -0.566965,-3.30729 -0.236236,-0.63783 -0.779576,-2.8112 -0.803198,-3.23642 -0.02363,-0.42522 -0.307107,-0.56696 -0.307107,-1.37016 0,-0.8032 -0.02363,-1.96075 -0.425223,-3.47266 -0.4016,-1.5119 -0.496094,-2.14974 -0.708705,-2.50409 -0.212611,-0.35435 -0.354354,-0.8032 -0.637836,-1.11031 -0.28348,-0.3071 -0.614209,-0.89769 -0.826823,-1.29929 -0.212611,-0.4016 -0.09449,-0.63783 -0.259858,-0.82682 -0.165365,-0.18899 -0.118118,-0.66146 -0.118118,-0.66146 z"
       style="opacity:1;fill:#1358bc;fill-opacity:1;stroke:none;stroke-width:0.26458332px;stroke-linecap:butt;stroke-linejoin:miter;stroke-opacity:1" />
    <path
       id="path4846"
       d="m 72.730719,247.4215 c 0,0 -0.484426,0.43431 -1.252826,0.23386 -0.7684,-0.20045 -1.503392,-0.96885 -1.687139,-1.9043 -0.183748,-0.93544 0.06682,-2.62258 0.250565,-3.07359 0.183748,-0.45102 1.186008,-3.00679 1.57021,-3.59144 0.384199,-0.58465 1.336347,-1.87088 1.65373,-2.15486 0.317381,-0.28397 1.11919,-0.85192 1.570207,-1.23612 0.451019,-0.3842 1.353053,-1.01897 1.753957,-1.35305 0.400905,-0.33409 0.434314,-0.48443 0.601356,-0.51784 0.167045,-0.0334 0.334087,-0.0334 0.467722,0.0167 0.133636,0.0501 0.250566,0.0167 0.283975,0.15034 0.03341,0.13363 0,0.7684 0.03341,1.05237 0.03341,0.28397 0,1.23612 0.100224,1.46998 0.100227,0.23386 0.06682,0.43432 0.01669,0.83522 -0.05011,0.4009 -0.350792,2.37202 -0.350792,2.37202 l -0.651468,-1.08578 -0.851924,-1.83748 -0.684876,0.25056 -0.451017,0.58466 -2.388722,2.53906 -1.135896,2.12145 -0.01669,2.35531 0.567949,1.88759 z"
       style="opacity:1;fill:#1358bc;fill-opacity:1;stroke:none;stroke-width:0.26458332px;stroke-linecap:butt;stroke-linejoin:miter;stroke-opacity:1" />
    <path
       id="path4852"
       d="m 92.241395,260.90191 1.085781,0.50113 0.06837,0.79362 -1.805622,-0.40942 -4.209494,-1.5368 -1.616255,-1.0799 -6.502059,-0.25645 -4.627102,-1.03567 -7.03253,-2.18827 -4.860964,-1.73725 -1.787364,0.7684 -1.954411,2.02122 -1.11919,2.656 -1.436574,-1.45328 -0.88533,-2.13816 -0.11693,-5.64607 1.186008,-2.75622 2.939966,-4.05915 1.870887,-1.5368 c 0,0 -0.367496,1.06908 -0.952148,1.90429 -0.584653,0.83522 -1.119193,1.63703 -1.403165,2.17157 -0.283975,0.53454 -0.801809,1.20271 -0.968854,1.73725 -0.167042,0.53454 -0.451017,1.1526 -0.517834,1.63703 -0.06682,0.48442 0.06682,0.70158 0.08352,1.26953 0.0167,0.56795 -0.08352,1.65373 0.03341,2.02122 0.11693,0.3675 0.334087,1.48669 0.334087,1.48669 0,0 1.302938,-0.88533 1.954408,-1.11919 0.651468,-0.23386 1.202711,-0.7851 1.854182,-1.08578 0.65147,-0.30068 0.935442,-0.68488 1.369755,-0.63477 0.434314,0.0501 0.751698,0 1.202714,0.31738 0.451017,0.31739 1.753955,0.80181 2.054635,1.11919 0.300678,0.31739 1.219417,0.93545 1.570207,1.10249 0.350793,0.16705 1.637027,0.60136 2.088044,0.80181 0.451017,0.20045 1.085781,0.65147 1.503392,0.73499 0.417607,0.0835 2.65599,0.96885 3.474503,1.20272 0.818512,0.23386 1.018966,0.51783 2.171565,0.65146 1.152599,0.13364 2.071338,0.31739 2.639287,0.30068 0.567947,-0.0167 3.858702,0.3842 4.359833,0.51784 0.501132,0.13363 1.753958,0.3842 2.288495,0.70158 0.534541,0.31738 1.703843,1.20271 2.372016,1.36976 0.668177,0.16704 2.10475,0.73499 2.488949,0.7851 0.384199,0.0501 0.801809,0.10023 0.801809,0.10023 z"
       style="fill:#1358bc;fill-opacity:1;stroke:none;stroke-width:0.26458332px;stroke-linecap:butt;stroke-linejoin:miter;stroke-opacity:1" />
    <path
       id="path4855"
       d="m 61.555513,237.0481 c 0.618061,-0.81851 0.467722,-0.91874 1.035669,-1.35305 0.567947,-0.43431 0.65147,-0.21716 0.968851,-0.46772 0.317384,-0.25057 0.634765,-0.65147 0.701583,-0.81851 0.06682,-0.16705 0.167044,-0.31739 0.167044,-0.31739 0,0 0.11693,-0.0668 0.167042,0.35079 0.05011,0.41761 -0.183748,1.73726 -0.283972,2.07134 -0.100227,0.33409 -0.651462,0.93541 -0.651462,0.93541 l -1.002268,-0.23382 -0.7684,0.31738 z"
       style="fill:#1358bc;fill-opacity:1;stroke:none;stroke-width:0.26458332px;stroke-linecap:butt;stroke-linejoin:miter;stroke-opacity:1" />
    <path
       id="path4923"
       d="m 69.389852,189.79151 3.574729,4.47676 c 0,0 1.904294,6.64833 2.171563,8.92012 0.267271,2.27179 0.233862,3.20724 0.668176,5.17835 0.434311,1.97111 0.734991,3.54132 0.768398,4.27631 0.03341,0.73499 0.171492,3.25866 0.05315,4.24962 -0.130749,1.09488 -2.558805,12.45473 -3.460839,14.52607 -0.902036,2.07134 -1.670433,3.74177 -2.071338,4.30972 -0.400904,0.56795 -1.670436,2.13815 -2.171565,2.80633 -0.501131,0.66817 -0.726638,1.06908 -0.876977,1.27788 -0.150342,0.2088 -0.718288,0.67653 -0.843571,0.85192 -0.125283,0.1754 -3.063748,5.62754 -3.063748,5.62754 L 64.04446,243.212 c 0,0 -0.131048,-2.05798 0.08156,-3.12104 0.212611,-1.06306 0.767765,-3.4136 0.944941,-3.92151 0.177175,-0.5079 0.330729,-0.88588 0.448847,-1.15755 0.118118,-0.27167 0.696894,-2.33873 0.850447,-2.70489 0.153551,-0.36616 1.003999,-2.3151 1.181174,-2.63402 0.177176,-0.31892 0.826823,-1.42923 0.909506,-1.75995 0.08268,-0.33073 1.098494,-5.89407 1.110305,-6.34292 0.0118,-0.44884 0.165365,-2.81119 0.153554,-3.08287 -0.0118,-0.27166 0.14174,-1.37016 0,-1.74813 -0.141743,-0.37798 -1.098495,-2.75214 -1.157552,-3.38998 -0.05906,-0.63783 -1.051248,-4.27585 -1.145741,-5.10268 -0.09449,-0.82682 -0.696894,-4.08686 -0.696894,-4.42941 0,-0.34254 -0.212612,-3.40178 -0.188987,-3.89788 0.02363,-0.49609 2.85423,-10.12766 2.85423,-10.12766 z"
       style="fill:#c9e4ff;fill-opacity:1;stroke:none;stroke-width:0.26458332px;stroke-linecap:butt;stroke-linejoin:miter;stroke-opacity:1" />
    <path
       id="path4861"
       d="m 59.365885,205.38802 c -0.02363,-1.06306 -0.354354,-1.08668 -0.07087,-2.14974 0.283483,-1.06306 0.519719,-1.84264 1.086684,-2.66946 0.566962,-0.82682 1.984375,-2.95294 2.622208,-3.33091 0.637834,-0.37798 2.031622,-2.31511 2.338729,-2.66946 0.307105,-0.35435 1.039434,-2.26786 1.275668,-3.14193 0.236235,-0.87407 0.897694,-2.78757 1.13393,-3.56715 0.236236,-0.77957 0.14174,-0.56696 0.54334,-1.63002 0.401601,-1.06306 0.377976,-1.11031 0.54334,-1.13393 0.165365,-0.0236 0.448848,-0.0945 0.661459,0.11812 0.212611,0.21261 0.496094,1.13393 0.496094,1.13393 0,0 -0.04725,-1.15755 -0.236236,-1.6064 -0.188987,-0.44885 -0.472469,-0.87407 -0.354352,-1.03944 0.118118,-0.16536 0.259858,-0.25985 0.425223,-0.25985 0.165365,0 0.803201,0.68508 1.063059,1.08668 0.259858,0.4016 0.779576,1.48828 0.755951,1.84263 -0.02363,0.35435 -0.04725,1.18118 -0.188986,1.6064 -0.141743,0.42522 -0.685083,2.50409 -0.826823,3.14193 -0.141743,0.63783 -1.653646,6.61458 -1.653646,6.61458 0,0 -3.165552,2.8112 -3.543527,3.5199 -0.377976,0.70871 -0.637837,0.44885 -0.637837,0.44885 l 0.02363,-2.95294 -1.063059,0.21261 -3.189174,4.27586 z"
       style="opacity:1;fill:#1358bc;fill-opacity:1;stroke:none;stroke-width:0.26458332px;stroke-linecap:butt;stroke-linejoin:miter;stroke-opacity:1" />
    <path
       id="path4835"
       d="m 93.395552,262.19666 c 0,0 -0.934008,-2.54916 -2.00209,-4.05734 -0.637836,-0.90064 -8.068166,-5.24096 -9.19877,-5.8719 -3.963925,-2.2121 -7.395265,-3.69461 -8.158606,-4.21534 -1.523718,-1.03944 -2.101099,-1.75008 -2.4096,-2.62812 -0.307705,-0.87578 -0.283483,-2.02571 -0.04725,-2.99428 0.180867,-0.74156 0.425225,-1.32291 1.13393,-2.17336 0.708705,-0.85045 1.53553,-1.65365 2.149741,-2.4096 0.61421,-0.75595 0.992186,-1.18117 0.992186,-1.18117 0,0 0.838635,0.82682 1.015812,1.35835 0.177177,0.53153 0.555151,2.50409 0.555151,2.50409 0,0 1.560987,-1.37042 2.019811,-2.17336 0.489256,-0.8562 0.714229,-1.23685 0.90203,-2.09163 0.195187,-0.8884 0.434312,-3.6332 0.451019,-4.07586 0.0096,-0.25535 -0.0334,-1.57021 -0.0167,-1.93771 0.0167,-0.36749 0.342442,-1.62867 0.53454,-2.02122 0.180603,-0.36906 0.785752,-1.83163 1.369755,-3.17383 0.584003,-1.3422 1.454445,-3.21252 2.121453,-4.84426 0.705497,-1.7259 1.753956,-4.44335 1.987817,-5.22846 0.233859,-0.7851 1.353053,-4.2262 1.436574,-4.57699 0.08352,-0.35079 1.018967,-4.61876 1.135896,-5.26187 0.119563,-0.6576 0.50113,-4.07586 0.567947,-4.57699 0.06623,-0.49673 0.08224,-3.35482 0.100226,-3.72507 0.02646,-0.54472 -0.03341,-2.28849 -0.03341,-2.65599 -2e-6,-0.33575 -0.400907,-2.90655 -0.250565,-3.40769 0.150336,-0.50112 0.46772,-0.98555 0.7684,-1.26953 0.300676,-0.28397 1.336345,-1.1693 1.77066,-1.41987 0.434312,-0.25056 1.469981,-0.71829 1.770661,-0.7851 0.300676,-0.0668 1.202713,-0.23386 1.503391,-0.18375 0.300677,0.0501 1.356126,0.45063 1.68714,0.56795 0.65982,0.23386 1.987817,1.46998 1.987817,1.46998 0,0 -0.201288,-1.33203 -0.250566,-1.5702 -0.400907,-1.93771 -1.177656,-3.47451 -1.737251,-4.09257 -0.8562,-0.94565 -2.546217,-3.00867 -3.215586,-3.88376 -0.91049,-1.19031 -4.092597,-3.97137 -4.752386,-4.51852 -0.684882,-0.56796 -2.357026,-1.67704 -2.875872,-2.0307 -0.53029,-0.36146 -4.511069,-4.41879 -4.841537,-4.8849 -0.559597,-0.78928 -3.116121,-2.9469 -3.649901,-3.2323 -1.332933,-0.71268 -3.090306,-1.88759 -3.332516,-2.09639 -0.134496,-0.11594 -2.016333,-1.45614 -2.667802,-1.72341 -0.651469,-0.26727 -1.921344,-0.77567 -2.088043,-0.98556 -0.353828,-0.44552 -0.338978,-0.48991 -0.57284,-0.65696 -0.233858,-0.16704 -2.204976,-0.83521 -2.672697,-1.03566 -0.467721,-0.20046 -1.219415,-0.70994 -2.505651,-0.9271 -1.286234,-0.21715 -2.54767,-0.027 -3.027663,0.0459 -0.682814,0.1038 -2.802152,0.81434 -3.269876,0.98138 -0.467718,0.16705 -4.100914,1.85418 -4.535227,2.10475 -0.434311,0.25056 -2.129804,1.44492 -2.564118,1.76231 -0.43431,0.31738 -1.039843,0.67652 -1.273707,0.92709 -0.233858,0.25056 -0.910422,0.99412 -1.186008,1.62032 -0.336305,0.76416 -0.480253,1.82912 -0.496956,2.39707 -0.0167,0.56795 0.384203,4.32643 0.400905,4.6104 0.0167,0.28397 1.018965,5.31616 1.085784,5.78389 0.06682,0.46772 0.530363,3.21558 0.580475,3.58308 0.05011,0.36749 0.366256,4.5744 0.405082,4.98206 0.04176,0.43849 0.335112,2.63108 0.246389,3.41187 -0.06264,0.55125 -0.179576,0.71411 -0.463546,1.04819 -0.283977,0.33409 -0.505306,0.52619 -0.755872,0.8561 -0.25339,0.33363 -0.797631,1.33217 -0.897858,1.73308 -0.100224,0.4009 -0.133632,0.55124 -0.183748,0.73499 -0.05012,0.18375 -0.200455,7.7007 0.05011,8.68626 0.250565,0.98556 1.202714,3.39098 1.386462,3.74177 0.183747,0.35079 0.584654,1.01897 0.902033,1.35305 0.317385,0.33409 0.488603,0.37585 0.488603,0.37585 0,0 0.351364,-0.36803 0.764223,-0.91038 0.489532,-0.64307 1.30294,-1.62033 1.30294,-1.62033 l 4.693921,-12.08559 c -0.07356,1.8053 -0.373136,5.05728 0.258917,8.05984 0.128057,0.60834 0.46053,2.23553 0.593005,2.71447 0.122786,0.44391 0.96885,1.99616 0.96885,1.99616 0,0 0.400905,-1.23611 0.60971,-1.97946 0.221537,-0.78867 1.55969,-3.13719 2.021226,-3.6499 0.346494,-0.38492 2.179916,-2.47224 2.580821,-2.58917 0,0 0.108571,2.67269 0.09187,3.05689 -0.0167,0.38421 0.148335,1.58264 0.12529,2.33861 -0.04176,1.36976 0.384197,3.40768 0.751695,4.30972 0.367494,0.90203 1.073366,3.26605 1.286233,3.92552 0.213503,0.66144 0.684878,2.00452 0.818512,2.57247 0.133635,0.56795 0.476238,2.90873 0.534541,3.69166 0.05846,0.78511 0.04255,2.91862 0.05847,3.92553 0.01614,1.02102 -0.187013,2.32218 -0.375847,3.07359 -0.384542,1.53017 -1.26953,3.44945 -1.653731,4.05916 -0.386643,0.61359 -1.772418,2.44097 -2.154859,2.90655 -0.384201,0.46772 -0.960501,1.19437 -1.177658,1.47834 -0.217157,0.28398 -0.803066,0.96097 -1.010613,1.26118 -0.24574,0.35546 -0.945529,2.24674 -1.227768,3.49956 0,0 0.511297,-0.37845 1.077429,-0.62642 0.448841,-0.1966 0.867345,-0.54852 1.753958,-0.21715 0,0 -1.537101,2.31634 -1.737252,2.65599 -0.275623,0.46772 -0.818516,1.35305 -1.353053,1.9377 -0.534541,0.58466 -1.813457,2.27639 -2.171565,2.65599 -0.41761,0.44267 -1.479153,2.39304 -1.653728,2.68941 -0.359142,0.6097 -0.926128,2.08321 -1.169304,2.93996 -0.243065,0.85636 -0.123113,3.97673 -0.0167,4.37653 0.105794,0.39747 0.183748,2.07135 0.734992,2.92327 0.551243,0.85192 1.044701,1.66735 1.469982,2.20497 0.442667,0.55959 1.620323,1.99617 1.620323,1.99617 0,0 -1.212053,-1.86269 -1.236124,-2.8648 -0.0167,-0.69515 0.212917,-1.01205 0.668174,-1.78736 0.30086,-0.51237 0.609461,-1.02875 1.135896,-1.57021 0.589278,-0.6061 1.5368,-1.28623 2.07134,-1.46998 0.534538,-0.18375 1.102485,-0.0668 1.286233,-0.0334 0.183747,0.0334 1.874093,0.47677 2.589175,0.83522 0.731111,0.36648 3.169902,1.34831 3.511792,1.45142 0.338976,0.10224 3.203352,1.07094 3.57085,1.13775 0.367493,0.0668 2.840231,0.83117 3.474503,0.91874 0.347889,0.048 3.17508,0.46814 3.608139,0.50113 0.930407,0.0709 2.589612,0.31499 3.006783,0.33409 1.031818,0.0473 2.278708,-0.13245 2.693452,-0.11102 0.361588,0.23993 1.037667,0.66379 1.616269,0.99635 0.585564,0.33656 1.501779,0.85083 3.434378,1.48906 0.786608,0.25977 2.580725,0.54071 2.580725,0.54071 z"
       style="fill:none;stroke:#000000;stroke-width:1.05833328;stroke-linecap:round;stroke-linejoin:round;stroke-miterlimit:4;stroke-dasharray:none;stroke-opacity:1" />
    <path
       id="path4840"
       d="m 85.611606,176.94531 c 0.566965,1.06306 2.645834,6.07124 2.952938,7.58315 0.307107,1.5119 1.228424,6.02399 1.228424,6.02399"
       style="fill:none;stroke:#000000;stroke-width:0.5291667;stroke-linecap:round;stroke-linejoin:miter;stroke-miterlimit:4;stroke-dasharray:none;stroke-opacity:1" />
    <path
       id="path4849"
       d="m 77.5678,234.37407 c -0.106305,0.12993 -1.712709,2.29148 -1.712709,2.29148"
       style="fill:none;stroke:#000000;stroke-width:0.58208334;stroke-linecap:round;stroke-linejoin:miter;stroke-miterlimit:4;stroke-dasharray:none;stroke-opacity:1" />
    <path
       id="path4858"
       d="m 63.660268,237.44897 c 0,0 0.484418,-0.28394 0.651462,-1.15256 0.167042,-0.86863 0.183748,-1.72055 0.183748,-1.72055"
       style="fill:none;stroke:#000000;stroke-width:0.47624999;stroke-linecap:round;stroke-linejoin:miter;stroke-miterlimit:4;stroke-dasharray:none;stroke-opacity:1" />
    <path
       id="path4864"
       d="m 64.762747,198.19376 c 0,0 1.524825,-1.0031 1.902804,-1.47557 0.377976,-0.47247 1.039434,-2.05525 1.039434,-2.05525 0,0 0.519716,-1.39378 0.708705,-2.69308 0.188987,-1.29929 0.377976,-5.81138 0.307105,-6.02399 -0.07087,-0.21261 -0.118118,-0.33073 -0.118118,-0.33073"
       style="fill:none;stroke:#000000;stroke-width:0.63499999;stroke-linecap:round;stroke-linejoin:miter;stroke-miterlimit:4;stroke-dasharray:none;stroke-opacity:1" />
    <path
       id="path4867"
       d="m 69.760229,183.44178 c 0.496093,0.37797 0.94494,0.77957 1.110305,1.25204 0.165365,0.47247 0.307107,1.01581 0.165365,1.51191 -0.14174,0.49609 -0.259858,0.77957 -0.259858,0.77957"
       style="fill:none;stroke:#000000;stroke-width:0.26458332;stroke-linecap:round;stroke-linejoin:miter;stroke-miterlimit:4;stroke-dasharray:none;stroke-opacity:1" />
    <path
       id="path4878"
       d="m 77.658501,176.6786 c 0.03341,-0.27562 0.05011,-1.33635 -0.133635,-2.29685 -0.183747,-0.9605 -0.367495,-1.62032 -0.534538,-2.12145 -0.167044,-0.50113 -0.275622,-0.65982 -0.275622,-0.65982 0,0 -0.517833,1.61197 -0.634764,2.03793 -0.116932,0.42596 -0.250566,1.05237 -0.250566,1.05237 0,0 -1.26953,0.11693 -1.687139,0.25892 -0.417606,0.14198 -1.38348,0.49591 -1.80407,0.89368 -0.199091,0.18829 -0.417614,0.21715 -0.576299,0.30903 -0.158698,0.0919 -0.342435,0.28397 -0.392552,0.33409 -0.05011,0.0501 -2.372522,1.7921 -3.215587,3.53297 -0.321556,0.66399 -0.718288,1.15259 -0.718288,1.15259 0,0 0.54584,-0.2562 0.885333,-0.57629 0.292328,-0.27562 0.375846,-0.33409 0.576299,-0.45102 0.200451,-0.11693 0.760045,-0.54289 0.985555,-0.70994 0.225506,-0.16704 0.751502,-0.4947 1.044022,-0.66817 0.359143,-0.21298 1.721664,-0.88005 2.681049,-1.08578 0.607299,-0.13023 0.867898,-0.31731 1.862534,-0.55124 0.987725,-0.23231 2.188268,-0.45102 2.188268,-0.45102 z"
       style="fill:#1358bc;fill-opacity:1;stroke:none;stroke-width:0.26458332px;stroke-linecap:butt;stroke-linejoin:miter;stroke-opacity:1" />
    <path
       id="path4870"
       d="m 68.390065,179.851 c 0,0 1.346542,-1.88988 2.055247,-2.33873 0.708705,-0.44884 1.81901,-1.22842 2.433222,-1.37016 0.614211,-0.14174 3.874256,-0.99219 3.874256,-0.99219 0,0 0.02363,-1.88988 0,-2.33873 -0.02363,-0.44884 -0.141742,-0.99218 -0.141742,-0.99218"
       style="fill:none;stroke:#000000;stroke-width:0.26458332;stroke-linecap:round;stroke-linejoin:miter;stroke-miterlimit:4;stroke-dasharray:none;stroke-opacity:1" />
    <path
       id="path4886"
       d="m 76.870908,170.87407 c 0.09294,-0.0872 0.312781,-0.27406 0.165365,-0.47247 -0.199778,-0.26888 -0.87529,-0.9097 -1.322917,-1.39379 -0.499719,-0.54043 -1.204801,-0.89769 -1.511906,-1.18118 -0.307104,-0.28348 -1.850755,-2.23137 -1.850755,-2.23137 0,0 -0.08352,0.78093 -0.01669,1.23195 0.06682,0.45102 0.187924,1.43657 0.380024,1.74978 0.192099,0.31321 0.906211,1.28623 0.906211,1.28623 0,0 -1.307116,1.09831 -1.724724,1.7122 -0.41761,0.61388 -1.010613,1.4324 -1.119192,1.70384 -0.108577,0.27145 -3.780031,6.09928 -3.862713,6.53631 -0.08268,0.43703 -0.307107,0.99218 -0.307107,0.99218 0,0 0.708705,-0.92131 1.015812,-1.24023 0.307104,-0.31892 0.874069,-1.18118 1.122116,-1.54734 0.248047,-0.36616 0.541984,-0.64977 0.885881,-1.01581 0.239123,-0.25452 0.504952,-0.56373 0.579554,-0.65167 0.08943,-0.10542 0.329951,-0.32871 0.71974,-0.73031 0.389787,-0.4016 0.34254,-0.44884 0.661459,-0.83863 0.318918,-0.38979 1.334727,-1.27567 1.594585,-1.4056 0.259861,-0.12993 1.754248,-1.15402 2.196989,-1.45285 0.2706,-0.18264 0.501923,-0.33493 0.531527,-0.37797 0.132484,-0.1926 -0.02929,-0.23356 0.08268,-0.25986 0.259482,-0.0609 0.639835,-0.18246 0.874072,-0.41341 3e-6,0 -1.1e-5,0 -1.1e-5,0 z"
       style="fill:#1358bc;fill-opacity:1;stroke:none;stroke-width:0.26458332px;stroke-linecap:butt;stroke-linejoin:miter;stroke-opacity:1" />
    <path
       id="path4872"
       d="m 66.830915,180.2526 c 0.590588,-1.44103 1.866258,-3.75614 2.645834,-4.79557 0.779573,-1.03944 2.551337,-2.95294 3.09468,-3.42541 0.543341,-0.47247 1.984375,-1.88988 2.078868,-2.22061 0.09449,-0.33073 0.33073,-0.35435 0.212612,-0.73233 -0.118118,-0.37798 -0.992188,-1.29929 -1.204799,-1.55915 -0.212611,-0.25986 -0.803168,-1.22837 -0.944941,-1.44103 l -0.129936,-0.1949"
       style="fill:none;stroke:#000000;stroke-width:0.47624999;stroke-linecap:round;stroke-linejoin:miter;stroke-miterlimit:4;stroke-dasharray:none;stroke-opacity:1" />
    <path
       id="path4892"
       d="m 68.697173,163.85789 c 0.767762,0.815 0.826822,1.26385 1.192987,1.50009 0.366165,0.23623 1.452846,0.68508 1.795386,0.81501 0.34254,0.12993 0.389789,0.27167 0.377976,0.4016 -0.0118,0.12993 -0.248047,0.81501 -0.437034,1.06306 -0.188989,0.24804 -0.732329,1.06305 -0.956752,1.34654 -0.224424,0.28348 -0.897694,1.34654 -1.122119,1.67726 -0.224422,0.33073 -0.933127,1.16937 -1.169363,1.42923 -0.236236,0.25986 -0.755951,1.26385 -0.968562,1.63002 -0.212612,0.36616 -0.484283,0.98038 -0.744141,1.50009 -0.259861,0.51972 -0.708705,1.38198 -0.708705,1.38198 0,0 1.110303,-4.18136 1.972561,-5.69327 0.862259,-1.5119 1.937129,-3.02381 1.937129,-3.02381 0,0 -0.614212,-1.06306 -0.815012,-1.63002 -0.200798,-0.56696 -0.354351,-2.44503 -0.354351,-2.44503"
       style="fill:#1358bc;fill-opacity:1;stroke:none;stroke-width:0.26458332px;stroke-linecap:round;stroke-linejoin:miter;stroke-opacity:1" />
    <path
       id="path4953"
       d="m 64.633927,161.35379 c 0.637836,0.30711 1.700895,1.13393 2.102493,1.39379 0.4016,0.25986 0.685083,0.35435 0.874069,0.82682 0.188989,0.47247 0.543343,1.41741 0.59059,1.86626 0.04725,0.44885 0.236233,2.29148 0.188986,3.04743 -0.04725,0.75595 -0.448847,2.24424 -0.566962,2.59859 -0.118118,0.35435 -0.755954,2.17336 -0.755954,2.17336 l -0.543341,1.41741 -0.354351,-0.85044 -0.779576,-5.50428 c 0,0 0.04725,-0.0236 0.14174,-0.92132 0.09449,-0.89769 0.212611,-1.13393 -0.02363,-1.88988 -0.236236,-0.75595 -0.708708,-2.50409 -1.015813,-2.85844 -0.307104,-0.35436 -0.637833,-0.87407 -0.614211,-1.15756 0.02363,-0.28348 0.4016,-0.33072 0.4016,-0.33072 z"
       style="fill:#1358bc;fill-opacity:1;stroke:none;stroke-width:0.26458332px;stroke-linecap:butt;stroke-linejoin:miter;stroke-opacity:1" />
    <path
       id="path4943"
       d="m 50.814618,191.46194 c 0,0 0.501131,0.13364 1.336349,-0.4009 0.835216,-0.53454 1.837476,-2.23838 2.204971,-2.50565 0.367496,-0.26727 1.703846,-0.90204 2.037932,-1.43658 0.334087,-0.53454 0.100225,-1.63702 0.267269,-2.37201 0.167045,-0.73499 0.434314,-2.87315 0.367496,-3.64155 -0.06682,-0.7684 -0.467723,-3.54132 -0.835218,-5.24517 -0.367496,-1.70384 -0.501129,-3.60814 -0.46772,-4.27631 0.03341,-0.66817 -0.03341,-0.7684 0.100224,-1.30294 0.133636,-0.53454 0.200454,-0.36749 0.233863,-1.20271 0.03341,-0.83522 0,-1.23612 0.100224,-1.57021 0.100227,-0.33408 0.634767,-1.80407 1.102487,-2.3052 0.467722,-0.50113 1.069078,-1.1693 1.269531,-1.1693 0.200451,0 0.46772,-0.30068 1.403165,-0.10023 0.935443,0.20045 1.202714,-0.0334 1.937703,0.20045 0.734991,0.23386 0.701585,0.16705 1.102487,0.46773 0.400904,0.30067 1.837478,1.67043 2.238383,2.57247 0.400904,0.90203 0.801809,1.00226 0.968851,1.77066 0.167045,0.76839 0.30068,3.44109 0.267271,3.8754 -0.03341,0.43432 0,1.80407 -0.100226,2.47225 -0.100227,0.66817 -0.367496,1.80407 -0.467723,2.60588 -0.100224,0.8018 -0.167042,1.60361 -0.334087,2.43883 -0.167042,0.83522 -0.367495,1.70384 -0.467719,1.9377 -0.100227,0.23386 -0.56795,1.50339 -0.56795,1.50339 l -0.133635,1.36976 -1.837476,1.1693 -0.334087,-2.53906 -0.03341,-2.10474 1.169302,-2.43884 1.002263,-3.29075 -0.200453,-0.85193 -1.57021,-3.54131 0.267272,2.20497 -0.08352,3.70836 -1.336358,4.15938 -0.918731,2.65599 -0.835216,2.40543 -0.935445,1.87089 -1.603615,0.96885 -1.269532,1.10249 -1.837478,1.67043 -1.269529,0.4009 -1.57021,-0.43431 z"
       style="opacity:1;fill:#c9e4ff;fill-opacity:1;stroke:none;stroke-width:0.26458332px;stroke-linecap:butt;stroke-linejoin:miter;stroke-opacity:1" />
    <path
       id="path4889"
       d="m 65.933221,176.89806 c 0.354354,-1.58277 0.744141,-2.77576 1.21661,-3.53171 0.472472,-0.75596 1.665459,-2.62221 2.008,-3.17736 0.34254,-0.55516 1.299292,-1.86626 1.452845,-2.37417 0.283483,-0.47246 0.2008,-0.75595 0.2008,-0.75595 -0.207409,-0.23045 -1.027623,-0.63783 -1.334727,-1.27567 -0.307107,-0.63783 -0.862259,-1.64183 -0.862259,-1.64183"
       style="fill:none;stroke:#000000;stroke-width:0.50270832;stroke-linecap:round;stroke-linejoin:round;stroke-miterlimit:4;stroke-dasharray:none;stroke-opacity:1" />
    <path
       id="path4895"
       d="m 63.618117,241.2367 0.366165,7.05162 0.649645,-2.09068 c 0,0 1.771763,-3.60259 2.031624,-3.79158 0.259858,-0.18899 0.68508,-0.9095 0.68508,-0.9095"
       style="opacity:1;fill:none;stroke:#1358bc;stroke-width:0.84666669;stroke-linecap:round;stroke-linejoin:round;stroke-miterlimit:4;stroke-dasharray:none;stroke-opacity:1" />
    <path
       id="path4898"
       d="m 67.752232,240.50437 c 0,0 -1.878068,3.24823 -2.008,3.59077 -0.129929,0.34254 -0.87407,1.97256 -0.87407,1.97256"
       style="fill:none;stroke:#000000;stroke-width:0.18520834;stroke-linecap:round;stroke-linejoin:miter;stroke-miterlimit:4;stroke-dasharray:none;stroke-opacity:1" />
    <path
       id="path4900"
       d="m 63.71261,240.90597 c 0,0 0.0945,3.33091 0.165365,3.7207 0.07087,0.38979 0.696894,3.07106 0.696894,3.07106"
       style="fill:none;stroke:#000000;stroke-width:0.10583333;stroke-linecap:round;stroke-linejoin:round;stroke-miterlimit:4;stroke-dasharray:none;stroke-opacity:1" />
    <path
       id="path4902"
       d="m 63.417317,242.50055 c 0,0 -0.0118,2.35054 0.03544,2.57497 0.04725,0.22442 0.271671,1.79538 0.271671,1.79538"
       style="fill:none;stroke:#000000;stroke-width:0.15875;stroke-linecap:round;stroke-linejoin:miter;stroke-miterlimit:4;stroke-dasharray:none;stroke-opacity:1" />
    <path
       id="path4911"
       d="m 75.855096,218.64081 c 0,0 0.330729,2.26786 -0.212611,5.76413 -0.54334,3.49628 -1.511906,7.6304 -1.937128,8.29186 -0.425223,0.66146 -1.393788,2.97656 -1.393788,2.97656"
       style="opacity:1;fill:none;stroke:#1358bc;stroke-width:1.53458333;stroke-linecap:round;stroke-linejoin:round;stroke-miterlimit:4;stroke-dasharray:none;stroke-opacity:1" />
    <path
       id="path4913"
       d="m 76.091332,216.89267 c 0,0 0.04725,2.83482 0.09449,3.70889 0.04725,0.87407 -0.307104,4.15774 -0.4016,4.58296 -0.09449,0.42523 -0.283483,1.29929 -0.283483,1.29929"
       style="fill:none;stroke:#000000;stroke-width:0.15875;stroke-linecap:round;stroke-linejoin:miter;stroke-miterlimit:4;stroke-dasharray:none;stroke-opacity:1" />
    <path
       id="path4915"
       d="m 75.146391,222.16071 c 0,0 0.165365,2.62221 0.14174,3.26005 -0.02363,0.63783 -0.566962,4.20498 -0.566962,4.20498"
       style="fill:none;stroke:#000000;stroke-width:0.15875;stroke-linecap:round;stroke-linejoin:miter;stroke-miterlimit:4;stroke-dasharray:none;stroke-opacity:1" />
    <path
       id="path4917"
       d="m 74.508555,226.62555 c 0,0 -0.637834,4.27586 -0.803198,4.9137 -0.165365,0.63783 -0.944941,2.90569 -0.944941,2.90569"
       style="fill:none;stroke:#000000;stroke-width:0.18520834;stroke-linecap:round;stroke-linejoin:miter;stroke-miterlimit:4;stroke-dasharray:none;stroke-opacity:1" />
    <path
       id="path4925"
       d="m 50.969134,208.25812 c 0,0 -0.989732,-0.45933 -0.989732,-2.33022 0,-1.87088 0.567947,-10.0226 1.837478,-11.22531 1.269529,-1.20272 2.80633,-2.50566 3.541321,-2.93997 0.734992,-0.43431 3.507912,-2.33861 3.875408,-2.90656 0.367496,-0.56794 1.503391,-2.37201 1.670434,-3.67495 0.167044,-1.30294 0.100226,-0.90204 0.634764,-1.9377 0.53454,-1.03567 0.634767,-1.57021 0.634767,-1.57021 0,0 0.267269,0.66817 0.23386,1.33634 -0.03341,0.66818 0.133636,3.30746 0.133636,3.30746 0,0 -1.503392,1.60362 -2.004523,2.20498 -0.501129,0.60135 -2.305198,3.40769 -2.405425,3.74177 -0.100227,0.33409 -3.140416,8.18513 -3.140416,8.18513 l -1.954409,5.27853 -2.067163,2.53071"
       style="opacity:1;fill:#1358bc;fill-opacity:1;stroke:none;stroke-width:0.26458332px;stroke-linecap:butt;stroke-linejoin:miter;stroke-opacity:1" />
    <path
       id="path4927"
       d="m 57.730217,193.64182 c 0,0 -0.166507,-0.0496 0.95096,-2.18393 1.123736,-2.14626 2.67675,-3.92671 3.111063,-4.29421 0.434311,-0.36749 2.586306,-2.01598 2.586306,-2.01598 0,0 -0.133634,-0.13363 -0.03341,-0.80181 0.100224,-0.66817 0.367496,-1.46998 0.534538,-1.63702 0.167045,-0.16705 0.968851,-0.83522 0.968851,-0.83522"
       style="fill:none;stroke:#000000;stroke-width:0.42333332;stroke-linecap:round;stroke-linejoin:round;stroke-miterlimit:4;stroke-dasharray:none;stroke-opacity:1" />
    <path
       id="path4935"
       d="m 61.254835,182.94273 1.35305,-2.27179 0.734991,-1.43658 0.584653,-2.23838 0.41761,-1.05237 -0.968854,-2.82304 -0.451016,-0.56794 0.01669,1.35305 -0.06681,2.27179 -0.467723,2.58917 -0.985557,2.85644 z"
       style="fill:#152b61;fill-opacity:1;stroke:none;stroke-width:0.26458332px;stroke-linecap:butt;stroke-linejoin:miter;stroke-opacity:1" />
    <path
       id="path4929"
       d="m 50.447122,190.02537 c 0,0 -0.200451,0.53454 0.200454,1.30294 0.400904,0.7684 0.167042,0.83522 0.601355,1.00226 0.434314,0.16704 1.202714,0.4009 1.603619,0.30068 0.400901,-0.10023 0.601355,0.10022 1.670433,-0.73499 1.069078,-0.83522 2.171565,-2.17157 2.706103,-2.50566 0.53454,-0.33408 1.102487,-0.60135 1.336349,-0.8018 0.23386,-0.20046 0.801807,-1.16931 0.968852,-1.60362 0.167044,-0.43431 0.434313,-1.50339 0.868627,-2.27179 0.434311,-0.7684 1.737251,-2.90656 2.104747,-3.90882 0.367496,-1.00226 0.701582,-0.96885 0.935442,-1.9377 0.23386,-0.96885 0.23386,-1.33635 0.634765,-2.07134 0.400904,-0.73499 0.668173,-1.46998 1.069078,-2.60588 0.400904,-1.1359 1.135896,-2.77292 1.202714,-3.87541 0.06682,-1.10248 0.400904,-3.80859 0.200451,-4.47676 -0.200451,-0.66818 -0.701583,-2.77292 -0.701583,-2.77292"
       style="fill:none;stroke:#000000;stroke-width:0.5291667;stroke-linecap:round;stroke-linejoin:round;stroke-miterlimit:4;stroke-dasharray:none;stroke-opacity:1" />
    <path
       id="path4931"
       d="m 64.269969,176.3988 c 0,0 0.175394,-0.40508 -0.45937,-2.10892 -0.634765,-1.70385 -1.236121,-2.73951 -1.236121,-2.73951 0,0 0.334086,2.07133 0.334086,3.07359 0,1.00226 -0.334087,3.47451 -0.567947,4.27632 -0.23386,0.80181 -2.171566,6.21401 -2.171566,6.21401"
       style="fill:none;stroke:#000000;stroke-width:0.5291667;stroke-linecap:round;stroke-linejoin:round;stroke-miterlimit:4;stroke-dasharray:none;stroke-opacity:1" />
    <path
       id="path4933"
       d="m 62.758227,177.4637 1.434485,-0.95215 -1.125457,-1.09413 z"
       style="fill:#f3f3f3;fill-opacity:1;stroke:#000000;stroke-width:0.26458332px;stroke-linecap:butt;stroke-linejoin:miter;stroke-opacity:1" />
    <path
       id="path4945"
       d="m 62.148515,170.1639 c 0.434314,-0.14199 0.392555,-0.25056 0.584653,-0.14199 0.192101,0.10858 0.53454,1.04403 0.53454,1.04403"
       style="opacity:1;fill:none;stroke:#1358bc;stroke-width:0.74083334;stroke-linecap:round;stroke-linejoin:round;stroke-miterlimit:4;stroke-dasharray:none;stroke-opacity:1" />
    <path
       id="path4947"
       d="m 62.301106,170.0059 c 0.206706,-0.0354 0.265766,-0.0886 0.383881,0.0413 0.118118,0.12993 0.348449,0.44885 0.348449,0.44885"
       style="fill:none;stroke:#000000;stroke-width:0.26458332;stroke-linecap:round;stroke-linejoin:miter;stroke-miterlimit:4;stroke-dasharray:none;stroke-opacity:1" />
    <path
       id="path4949"
       d="m 55.867683,188.38834 c 0.01669,-0.24221 0.158692,-0.69323 -0.192101,-0.76005 -0.35079,-0.0668 -0.409255,0.0668 -0.534537,0.1754 -0.125283,0.10858 -2.029579,2.53071 -2.029579,2.53071"
       style="fill:none;stroke:#000000;stroke-width:0.3175;stroke-linecap:round;stroke-linejoin:round;stroke-miterlimit:4;stroke-dasharray:none;stroke-opacity:1" />
    <path
       id="path4951"
       d="m 56.44838,187.35147 c -0.34254,-1.46466 -0.460658,-2.22061 -0.318916,-2.98838 0.14174,-0.76776 0.767763,-1.7127 0.708705,-3.04743 -0.05906,-1.33473 0.188987,-3.67346 -0.04725,-4.67746 -0.236236,-1.00399 -0.437036,-2.70489 -0.59059,-3.27185 -0.153551,-0.56697 -0.271669,-1.06306 -0.271669,-1.06306"
       style="fill:none;stroke:#1358bc;stroke-width:1.29645836;stroke-linecap:round;stroke-linejoin:round;stroke-miterlimit:4;stroke-dasharray:none;stroke-opacity:1" />
    <path
       id="path4955"
       d="m 55.338077,168.07468 c -0.03544,-0.23623 -0.531529,-0.88588 -0.425225,-1.75995 0.106307,-0.87407 0.283482,-1.33473 0.555154,-1.61821 0.271669,-0.28348 0.413411,-0.62602 0.862259,-0.75595 0.448844,-0.12993 1.02762,-0.12993 1.02762,-0.12993"
       style="fill:none;stroke:#000000;stroke-width:0.44979167;stroke-linecap:round;stroke-linejoin:round;stroke-miterlimit:4;stroke-dasharray:none;stroke-opacity:1" />
    <path
       id="path4957"
       d="m 58.66566,169.13658 c 0,0 -0.275622,-0.0835 -0.509482,-0.16704 -0.23386,-0.0835 -0.993907,-0.35079 -1.186008,-0.65982 -0.192101,-0.30903 -0.350793,-0.81016 -0.350793,-0.81016 l 0.250566,-0.65982 0.776753,0.81016 1.294585,0.88533 z"
       style="opacity:1;fill:#ffffff;fill-opacity:1;stroke:none;stroke-width:0.26458332px;stroke-linecap:butt;stroke-linejoin:miter;stroke-opacity:1" />
    <path
       id="path4959"
       d="m 58.878649,168.78339 c 0,0 -0.327776,-0.0354 -0.469516,-0.0915 -0.14174,-0.0561 -0.525624,-0.16832 -0.696894,-0.28644 -0.17127,-0.11812 -0.307105,-0.18604 -0.499047,-0.40455 -0.191942,-0.21852 -0.26281,-0.31301 -0.360259,-0.45771 -0.09745,-0.14469 -0.124023,-0.6024 -0.124023,-0.6024 l 0.508529,-1.03646 1.160952,-1.36975 0.427106,-0.31344 c 0,0 0.05906,-0.25101 0.159459,-0.22148 0.100399,0.0295 0.310057,0.15356 0.369118,0.20376 0.05906,0.0502 0.416364,0.37797 0.549246,0.6585 0.132881,0.28053 0.224424,0.45476 0.245094,0.68509 0.02066,0.23032 0.06497,0.36321 0.03839,0.49904 -0.02658,0.13584 -0.100399,0.3957 -0.100399,0.3957 l -0.944941,1.70384 z"
       style="opacity:1;fill:#26d2ef;fill-opacity:1;stroke:none;stroke-width:0.26458332px;stroke-linecap:butt;stroke-linejoin:miter;stroke-opacity:1" />
    <path
       id="path4963"
       d="m 57.888909,165.30294 0.835218,-0.60971 0.542891,0.55959 0.23386,0.89369 -0.283975,1.05237 -0.551243,0.20881 -0.91874,-1.51175 z"
       style="fill:#ffffff;fill-opacity:1;stroke:none;stroke-width:0.26458332px;stroke-linecap:butt;stroke-linejoin:miter;stroke-opacity:1" />
    <path
       id="path4961"
       d="m 57.646696,165.31129 c 0.125283,0.73499 0.06682,1.06072 0.409255,1.58691 0.34244,0.52619 0.701583,0.73499 0.91874,0.67653 0.217157,-0.0585 0.517834,-0.50113 0.567949,-0.73499 0.05011,-0.23386 0.258916,-0.5763 0.133633,-1.01897 -0.125283,-0.44266 -0.601356,-1.13589 -0.726639,-1.24447 -0.125283,-0.10858 -0.528275,0.0209 -0.528275,0.0209 z"
       style="fill:none;stroke:#000000;stroke-width:0.74083334;stroke-linecap:round;stroke-linejoin:round;stroke-miterlimit:4;stroke-dasharray:none;stroke-opacity:1" />
    <path
       id="path4965"
       d="m 56.495629,167.36598 c 0,0 0.11221,-0.87998 0.466564,-1.4056 0.354354,-0.52563 0.903599,-1.22252 1.163457,-1.39379 0.259858,-0.17127 0.699847,-0.34545 0.699847,-0.34545"
       style="fill:none;stroke:#000000;stroke-width:0.71437502;stroke-linecap:round;stroke-linejoin:round;stroke-miterlimit:4;stroke-dasharray:none;stroke-opacity:1" />
    <path
       id="path4969"
       d="m 59.147368,169.24995 c 0,0 0.153554,-0.69689 0.442942,-1.14574 0.289388,-0.44885 0.572867,-0.98037 0.761857,-1.16936 0.188989,-0.18899 0.903599,-0.75005 1.216609,-0.9036 0.313013,-0.15355 0.454753,-0.15946 0.454753,-0.15946"
       style="fill:none;stroke:#1358bc;stroke-width:0.82020831;stroke-linecap:round;stroke-linejoin:round;stroke-miterlimit:4;stroke-dasharray:none;stroke-opacity:1" />
    <path
       id="path4967"
       d="m 58.680804,169.64565 c 0,0 0.17127,-0.93904 0.372071,-1.32292 0.200797,-0.38389 0.862256,-1.54144 0.986279,-1.65365 0.124023,-0.11221 0.785482,-0.77957 0.785482,-0.77957"
       style="fill:none;stroke:#000000;stroke-width:0.42333332;stroke-linecap:round;stroke-linejoin:round;stroke-miterlimit:4;stroke-dasharray:none;stroke-opacity:1" />
    <path
       id="path4971"
       d="m 55.798734,207.66769 c 0,0 -5.575148,-3.012 -6.449217,-3.86245 -0.87407,-0.85044 -2.196987,-2.33872 -2.669458,-3.47265 -0.47247,-1.13393 -1.063059,-2.64584 -0.968563,-3.49628 0.09449,-0.85045 0.242723,-1.09458 0.472469,-1.46466 0.274793,-0.44265 0.386904,-0.60023 0.531529,-0.70871 0.162573,-0.12193 0.980377,-0.54334 1.287481,-0.54334 0.307107,0 1.039434,-0.0945 1.653646,0.0236 0.614212,0.11812 1.67727,0.49609 2.055246,0.77958 0.377976,0.28348 0.661459,0.82682 0.661459,0.82682 0,0 0.4016,-0.89769 0.803198,-1.41741 0.4016,-0.51972 0.685083,-1.03943 0.968565,-1.2048 0.283483,-0.16536 0.708705,-0.61421 1.322917,-0.63784 0.614212,-0.0236 1.299292,0.0236 1.441035,0.14175 0.14174,0.11812 0.821176,1.01049 0.821176,1.01049 0,0 -0.183343,1.44635 -0.136096,2.43854 0.04725,0.99219 -0.14174,3.5199 0.141743,4.3231 0.283479,0.8032 0.392622,0.94842 0.259857,1.13393 -0.29605,0.41367 -0.708705,1.46466 -0.850447,1.79539 -0.14174,0.33073 -0.569895,1.62745 -0.732327,2.03162 -0.176245,0.43855 -0.614213,2.30332 -0.614213,2.30332 z"
       style="opacity:1;fill:#f2bde9;fill-opacity:1;stroke:#000000;stroke-width:0.5291667;stroke-linecap:butt;stroke-linejoin:miter;stroke-miterlimit:4;stroke-dasharray:none;stroke-opacity:1" />
  </g>
</svg>
