<?xml version="1.0" encoding="UTF-8" standalone="no"?>

<svg
   xmlns="http://www.w3.org/2000/svg"
   version="1.2"
   baseProfile="tiny"
   width="242.3958"
   height="242.39583">
  <g
     style="opacity:1"
     id="layer2"
     transform="matrix(3.7795276,0,0,3.7795276,-424.03192,-89.659048)">
    <path
       id="path112"
       d="m 132.6325,24.251446 c 0,0 9.23538,1.909853 19.64431,8.018087 4.67722,-1.870887 11.92522,8.902909 14.49937,14.432555 1.80407,3.875406 4.27413,0.285546 9.02035,14.499371 -3.68974,-1.098243 -4.67721,0.26727 -4.67721,0.26727 2.24505,4.237602 -5.21176,15.167545 -5.21176,15.167545 l -1.26953,-1.80407 c -4.26677,5.285623 -15.50164,9.287616 -22.91836,9.68852 0,0 -4.14269,0.734992 -6.54811,2.80633 l -1.06908,-2.939965 c -5.2649,-0.274523 -8.68625,-1.00226 -12.09394,-2.004521 -1.80407,1.069077 -4.40995,3.407687 -9.28762,4.209496 2.00453,-6.080382 1.40317,-2.873149 3.94223,-7.817635 0.0668,-4.075859 -1.33635,-3.006782 -1.9377,-7.149458 -0.60136,-4.142679 -0.46773,-4.744036 -0.13362,-8.151721 l -1.1359,-2.739514 c -0.20044,-2.939963 1.1359,-7.283093 1.1359,-7.283093 5.07812,7.550362 7.81764,16.370259 8.35217,23.519717 4.67722,0.06682 5.67948,0.133636 8.55263,-0.534538 0,0 -1.00226,-1.670436 -0.46772,-3.474505 2.07133,0.534538 2.42027,2.03058 6.14719,1.603618 7.85612,-0.90001 14.29892,-13.229842 12.2944,-18.775685 -1.54847,-0.433207 -11.42577,-4.343129 -13.69756,-5.813113 -2.27179,-1.469984 -3.40769,-4.209494 -3.54132,-5.612659 1.06907,0.935443 0.98697,1.72737 4.14267,1.603617 3.40769,-0.133635 9.55489,-0.935443 13.56393,2.071338 -0.20009,-1.603345 -3.15204,-4.529835 -9.08716,-8.485807 -3.61969,-2.412652 -5.61267,-5.846518 -7.24135,-9.179036 -1.47525,-3.018587 -0.97721,-6.122144 -0.97721,-6.122144 z"
       style="opacity:1;fill:#2989e9;fill-opacity:1;fill-rule:nonzero;stroke:none;stroke-width:1.05833328;stroke-linecap:round;stroke-linejoin:round;stroke-miterlimit:4;stroke-dasharray:none;stroke-opacity:1;paint-order:stroke markers fill" />
    <path
       id="path4716"
       d="m 165.90756,76.636273 c 0,0 -1.21942,-1.336347 0.10022,-3.942225 1.31965,-2.605879 3.85871,-7.450138 3.90882,-9.521476 0.0501,-2.071341 0.0525,-3.544118 -2.23314,-7.427704 -0.16421,-1.578387 0.0115,-1.69287 0.0115,-1.69287 0,0 2.035,1.977538 3.04019,2.639288 1.00519,0.66175 3.62485,1.787363 4.15938,2.505652 0.53454,0.718285 0.90204,2.00452 0.90204,2.00452 0,0 -3.49791,-0.490155 -4.34648,0.314518 1.99116,4.763604 -5.54249,15.120297 -5.54249,15.120297"
       style="fill:#1358bb;fill-opacity:1;stroke:none;stroke-width:0.26458332px;stroke-linecap:butt;stroke-linejoin:miter;stroke-opacity:1" />
    <path
       id="path4748"
       d="m 163.20792,56.840757 c 0,0 0.49467,-0.04925 0.52807,1.804937 0.0334,1.854182 -0.35079,1.854182 -0.45102,2.990078 -0.10022,1.135895 1.18601,6.598216 0.53455,9.488066 0.0927,2.417383 0.81851,3.708366 0.81851,3.708366 0,0 -4.64381,4.393242 -7.75082,5.629365 -3.10701,1.23612 -7.90115,2.923259 -10.23976,3.324164 -2.33861,0.400904 -2.00452,0.217154 -4.92778,0.734991 -2.92327,0.517835 -6.54811,2.80633 -6.54811,2.80633 l -1.06908,-2.939966 c 0,0 -11.32554,-1.436571 -11.70974,-1.720545 l -0.3842,-0.283975 c 0,0 -6.81538,4.326424 -9.28762,4.209494 1.3447,-4.57699 3.94223,-5.829818 3.94223,-7.817633 0,-1.987817 -1.95441,-5.679477 -2.13816,-7.633885 -0.18375,-1.954408 0.0668,-7.667294 0.0668,-7.667294 l -1.1359,-2.739514 0.76838,-6.063676 c 0,0 0.49722,2.309279 0.28398,5.863225 -0.0237,0.39503 0.43303,1.792347 0.7684,2.405424 1.73188,3.166031 0.83521,6.38106 1.08578,8.352174 0.25056,1.971111 0.88533,3.875407 0.90203,5.829816 0.0167,1.954408 -0.7851,3.658251 -1.1693,4.543581 -0.3842,0.88533 -0.79657,1.820165 -1.5368,2.99008 2.28845,-0.684705 5.45098,-2.290701 6.59822,-3.407688 0.18693,-0.181997 0.59961,-0.21295 0.7851,-0.05011 0.81324,0.713925 1.53181,0.951065 2.27579,0.970704 1.36953,0.03615 1.6679,0.299292 2.23438,0.415755 0.56648,0.116463 0.41761,0.150339 1.06908,0.183748 0.65147,0.03341 2.05464,-0.05011 3.00678,0.06682 0.95215,0.11693 1.75396,0.451016 2.52236,0.517834 0.7684,0.06682 1.06908,0.06682 1.46998,0.133636 0.40091,0.06682 2.90656,0.517835 4.19279,0.384199 1.28624,-0.133633 1.921,-0.283972 2.47225,-0.384199 0.55124,-0.100227 2.53906,-0.317384 3.67495,-0.634765 1.1359,-0.317383 1.63703,-0.334086 2.13816,-0.434313 0.50113,-0.100227 2.90655,-0.751697 3.82529,-1.152599 0.91874,-0.400905 3.00679,-1.269532 3.80859,-1.586915 0.80181,-0.317381 2.75622,-1.369756 3.10701,-1.637025 0,0 -0.15369,-0.260956 0,-0.451017 0.48443,-0.517834 2.10475,-1.904296 2.37202,-2.488948 0.26727,-0.584653 2.40542,-4.593694 2.18827,-8.702964 -0.21716,-4.10927 0.20045,-4.660511 0.55124,-5.746295 0.35079,-1.085781 -1.1526,-3.441094 -0.85192,-4.176085 0.30068,-0.734991 1.20918,0.366628 1.20918,0.366628"
       style="opacity:1;fill:#1358bb;fill-opacity:1;stroke:none;stroke-width:0.26458332px;stroke-linecap:butt;stroke-linejoin:miter;stroke-opacity:1" />
    <path
       id="path4761"
       d="m 169.48229,53.183371 c 0,0 -2.26344,-4.518525 -2.43048,-5.621012"
       style="fill:none;stroke:#1358bb;stroke-width:0.79374999;stroke-linecap:round;stroke-linejoin:miter;stroke-miterlimit:4;stroke-dasharray:none;stroke-opacity:1" />
    <path
       id="path4764"
       d="m 168.49673,48.681552 1.06908,3.207234"
       style="fill:none;stroke:#1358bb;stroke-width:0.47624999;stroke-linecap:round;stroke-linejoin:miter;stroke-miterlimit:4;stroke-dasharray:none;stroke-opacity:1" />
    <path
       id="path4766"
       d="m 121.75797,78.490455 c 0,0 6.54811,-0.785104 8.01809,-0.885331 1.46998,-0.100224 1.9377,0.05011 2.48895,-0.150339 0.55124,-0.20045 1.65373,-0.634764 2.08804,-0.701582 0.43431,-0.06682 0.93544,-0.400905 0.93544,-0.400905 0,0 -0.3842,-0.116929 -1.00226,-0.08352 -0.61806,0.03341 -1.06908,-0.350792 -1.28623,-0.551243 -0.21716,-0.200451 -1.16931,-0.985557 -1.30294,-1.436574 -0.13364,-0.451016 -0.66815,-1.319643 -0.66815,-1.319643 l 0.46772,3.474505 c 0,0 -2.82306,0.701583 -4.35986,0.701583 -1.5368,0 -2.87315,-0.33409 -3.30746,-0.217157 -0.43431,0.11693 -2.07134,1.570207 -2.07134,1.570207 z"
       style="fill:#1358bb;fill-opacity:1;stroke:none;stroke-width:0.26458332px;stroke-linecap:butt;stroke-linejoin:miter;stroke-opacity:1" />
    <path
       id="path4822"
       d="m 152.84408,49.189362 c 0,0 -0.70867,-1.700896 -2.51586,-3.082872 -1.8072,-1.381975 -2.66946,-1.689082 -2.66946,-1.689082"
       style="fill:none;stroke:#6092cd;stroke-width:1.19062495;stroke-linecap:round;stroke-linejoin:miter;stroke-miterlimit:4;stroke-dasharray:none;stroke-opacity:1" />
    <path
       id="path4825"
       d="m 137.2262,50.293521 c 0,0 2.97337,0.985557 3.4578,1.202714 0.48442,0.217154 0.88533,0.551243 1.46998,0.684876 0.58465,0.133636 2.08804,0.434314 2.65599,0.65147 0.56795,0.217157 0.65147,0.300678 0.93544,0.334087 0.28398,0.03341 4.77745,0 5.46232,0.23386 0.68488,0.233863 0.85192,0.150339 1.08579,0.41761 0.23386,0.267269 0.13363,0.434311 0.0167,0.868625 -0.11693,0.434313 0.0334,0.53454 -0.18375,0.551243 -0.21715,0.0167 -1.13589,0.03341 -1.13589,0.03341 l -1.5201,0.06682 -2.20497,-0.567949 -5.79641,-2.154859 z"
       style="fill:#1358bb;fill-opacity:1;stroke:none;stroke-width:0.26458332px;stroke-linecap:butt;stroke-linejoin:miter;stroke-opacity:1" />
    <path
       style="opacity:1;fill:none;fill-opacity:1;fill-rule:nonzero;stroke:#000000;stroke-width:1.05833328;stroke-linecap:round;stroke-linejoin:round;stroke-miterlimit:4;stroke-dasharray:none;stroke-opacity:1;paint-order:stroke markers fill"
       d="m 132.6325,24.251446 c 0,0 9.23538,1.909853 19.64431,8.018087 4.67722,-1.870887 11.92522,8.902909 14.49937,14.432555 1.80407,3.875406 4.27413,0.285546 9.02035,14.499371 -3.68974,-1.098243 -4.67721,0.26727 -4.67721,0.26727 2.24505,4.237602 -5.21176,15.167545 -5.21176,15.167545 l -1.26953,-1.80407 c -4.26677,5.285623 -15.50164,9.287616 -22.91836,9.68852 0,0 -4.14269,0.734992 -6.54811,2.80633 l -1.06908,-2.939965 c -5.2649,-0.274523 -8.68625,-1.00226 -12.09394,-2.004521 -1.80407,1.069077 -4.40995,3.407687 -9.28762,4.209496 2.00453,-6.080382 1.40317,-2.873149 3.94223,-7.817635 0.0668,-4.075859 -1.33635,-3.006782 -1.9377,-7.149458 -0.60136,-4.142679 -0.46773,-4.744036 -0.13362,-8.151721 l -1.1359,-2.739514 c -0.20044,-2.939963 1.1359,-7.283093 1.1359,-7.283093 5.07812,7.550362 7.81764,16.370259 8.35217,23.519717 4.67722,0.06682 5.67948,0.133636 8.55263,-0.534538 0,0 -1.00226,-1.670436 -0.46772,-3.474505 2.07133,0.534538 2.42027,2.03058 6.14719,1.603618 7.85612,-0.90001 14.29892,-13.229842 12.2944,-18.775685 -1.54847,-0.433207 -11.42577,-4.343129 -13.69756,-5.813113 -2.27179,-1.469984 -3.40769,-4.209494 -3.54132,-5.612659 1.06907,0.935443 0.98697,1.72737 4.14267,1.603617 3.40769,-0.133635 9.55489,-0.935443 13.56393,2.071338 -0.20009,-1.603345 -3.15204,-4.529835 -9.08716,-8.485807 -3.61969,-2.412652 -5.61267,-5.846518 -7.24135,-9.179036 -1.47525,-3.018587 -0.97721,-6.122144 -0.97721,-6.122144 z"
       id="path4746" />
    <path
       id="path4671"
       d="m 131.54387,76.695681 2.80656,-1.151023"
       style="fill:#000000;fill-opacity:1;stroke:#000000;stroke-width:0.5291667;stroke-linecap:round;stroke-linejoin:miter;stroke-miterlimit:4;stroke-dasharray:none;stroke-opacity:1" />
    <path
       id="path4653"
       d="m 164.64984,75.351921 c 0,0 -2.46572,-9.562093 -1.8366,-14.020076 0.54619,-3.870289 0.39468,-4.491088 0.39468,-4.491088"
       style="fill:none;stroke:#000000;stroke-width:0.5291667;stroke-linecap:round;stroke-linejoin:miter;stroke-miterlimit:4;stroke-dasharray:none;stroke-opacity:1;paint-order:normal" />
    <path
       id="path4655"
       d="m 171.45005,61.515976 c 0,0 -1.00641,-1.92046 -1.63244,-3.33787 -1.87807,-1.819011 -2.59858,-4.204985 -2.59858,-4.204985"
       style="fill:none;fill-opacity:1;fill-rule:nonzero;stroke:#000000;stroke-width:0.5291667;stroke-linecap:round;stroke-linejoin:round;stroke-miterlimit:4;stroke-dasharray:none;stroke-opacity:1" />
    <path
       id="path4677"
       d="m 132.88307,24.389257 c 0,0 6.03175,3.213177 7.86581,4.53113 0.48844,0.350995 0.64863,0.425673 1.28313,0.923768 0.53427,1.475299 4.66192,2.161517 6.79611,2.950486 1.35092,0.49941 1.88268,1.07784 1.88268,1.07784 0.19082,-0.01433 0.37556,-0.07736 0.37556,-0.07736 1.56186,1.038105 2.65995,0.35924 3.97038,1.08203 1.33044,0.733824 1.9488,2.194884 2.19685,2.667354 0.92721,1.919412 1.60157,3.940068 1.73264,6.164201 0.13107,2.224133 -0.46656,0.897695 -0.28348,3.354541 0.80911,1.098494 2.9175,11.439684 3.26005,13.418153 0.12993,1.665458 0.3012,4.848726 0.0472,8.315476 -1.03943,3.354538 -3.32399,6.534646 -3.86244,7.140207 -0.93913,1.056185 -1.36269,2.311684 -4.25223,3.183269 -3.85025,1.161365 -6.76595,2.303276 -11.06762,2.338728 -4.29948,0.03543 -5.90588,-0.283483 -8.03199,-0.377979 -2.12612,-0.09449 -5.68145,-0.555151 -7.55953,-0.944938 1.78358,-0.6024 0.28349,-0.519718 4.15774,-1.464659 3.87426,-0.944941 8.05562,-1.269764 8.05562,-1.269764 0,0 4.58296,-3.419503 7.29966,-5.203077 1.37017,-2.244235 2.58635,-2.653186 4.11049,-5.386162 1.52414,-2.732976 1.96751,-8.727128 2.03163,-10.099051 0.0591,-1.263859 -0.35435,-1.547339 -1.15755,-4.334912 -0.8032,-2.787576 -0.77958,-2.433224 -0.87408,-3.094683 -0.0945,-0.661458 -0.23623,-2.220608 -0.23623,-2.220608 l 2.22061,2.126115 c 0,0 -0.1063,-1.334728 -1.4056,-2.669456 -0.95573,-0.981798 -2.75214,-2.267857 -3.83882,-2.480471 -0.79139,-0.755951 -5.14992,-3.732514 -5.76414,-4.015996 -0.45559,-0.346931 -3.04734,-2.43326 -3.69707,-3.413596 -0.64965,-0.980377 -3.37608,-3.970006 -4.14593,-5.894068 -1.72334,-4.307052 -1.10949,-6.326515 -1.10949,-6.326515 z"
       style="opacity:1;fill:#c9e4ff;fill-opacity:1;stroke:none;stroke-width:0.26458332;stroke-linecap:butt;stroke-linejoin:miter;stroke-miterlimit:4;stroke-dasharray:none;stroke-opacity:1" />
    <path
       id="path4687"
       d="m 147.6942,38.322543 -4.09868,-1.547339 -4.65384,-1.252048 -0.94494,-0.48428 0.94494,1.736328 1.44104,1.677268 1.41741,0.93313 2.12612,0.05906 2.65764,-0.259858 z"
       style="opacity:1;fill:#152b61;fill-opacity:1;stroke:none;stroke-width:0.26458332;stroke-linecap:butt;stroke-linejoin:miter;stroke-miterlimit:4;stroke-dasharray:none;stroke-opacity:1" />
    <path
       id="path4690"
       d="m 145.42385,37.594042 c 0,0 -0.67168,1.095531 -1.49921,1.403164 -0.005,-0.439887 -0.004,-2.004519 -0.004,-2.004519 z"
       style="fill:#f3f3f3;fill-opacity:1;stroke:#000f2f;stroke-width:0.26458332px;stroke-linecap:round;stroke-linejoin:miter;stroke-opacity:1" />
    <path
       id="path4693"
       d="m 143.72419,37.017743 -0.44685,0.734991 -0.6097,-1.023141 z"
       style="fill:#f3f3f3;fill-opacity:1;stroke:#000f2f;stroke-width:0.26458332;stroke-linecap:butt;stroke-linejoin:miter;stroke-miterlimit:4;stroke-dasharray:none;stroke-opacity:1" />
    <path
       d="m 148.0005,38.366618 c 0,0 -2.02123,1.353051 -4.56029,1.169303 -2.53906,-0.183747 -2.78962,-0.651469 -3.27405,-1.252825 -0.48442,-0.601355 -3.12371,-4.075859 -3.12371,-4.075859 m -0.66322,-0.625404 c 0,0 2.13402,2.010168 3.6223,2.388144 2.85804,0.344569 5.48389,1.389117 6.58522,2.028758 1.10134,0.63964 2.61816,0.280616 2.61816,0.280616"
       style="opacity:1;fill:none;fill-opacity:1;fill-rule:evenodd;stroke:#000000;stroke-width:0.66145831;stroke-linecap:round;stroke-linejoin:round;stroke-miterlimit:4;stroke-dasharray:none;stroke-opacity:1"
       id="path4683"/>
    <path
       id="path4710"
       d="m 164.82178,47.169808 c 0,0 0.61315,1.704341 0.53454,2.722809 -0.0786,1.018467 -0.51558,1.334619 -1.36976,1.987818 -0.85419,0.653198 -2.58919,1.97111 -3.30747,3.15712"
       style="fill:none;stroke:#1358bb;stroke-width:0.79374999;stroke-linecap:round;stroke-linejoin:miter;stroke-miterlimit:4;stroke-dasharray:none;stroke-opacity:1" />
    <path
       id="path4696"
       d="m 164.82178,47.169808 0.0501,2.939965 c 0,0 -2.75622,2.238383 -4.19279,4.927782"
       style="fill:none;stroke:#000000;stroke-width:0.26458332;stroke-linecap:round;stroke-linejoin:miter;stroke-miterlimit:4;stroke-dasharray:none;stroke-opacity:1" />
    <path
       id="path4707"
       d="m 163.40191,44.497112 c 0,0 0.41761,0.267271 0.50113,2.455539 0.1002,1.921001 -1.36976,1.737251 -3.15713,4.092564"
       style="fill:none;stroke:#1358bb;stroke-width:0.79374999;stroke-linecap:round;stroke-linejoin:miter;stroke-miterlimit:4;stroke-dasharray:none;stroke-opacity:1" />
    <path
       id="path4699"
       d="m 162.95089,43.444739 c 0,0 0.81851,3.72507 0.61805,4.209495 -0.20045,0.484426 -2.32189,1.620321 -3.57472,4.159381"
       style="fill:none;stroke:#000000;stroke-width:0.34395832;stroke-linecap:round;stroke-linejoin:miter;stroke-miterlimit:4;stroke-dasharray:none;stroke-opacity:1" />
    <path
       id="path4713"
       d="m 160.49535,39.502513 c 0,0 1.78736,4.042453 1.46998,5.896634 -0.31738,1.854182 -1.58691,1.904296 -2.62258,3.407688"
       style="fill:none;stroke:#1358bb;stroke-width:0.79374999;stroke-linecap:round;stroke-linejoin:miter;stroke-miterlimit:4;stroke-dasharray:none;stroke-opacity:1" />
    <path
       id="path4701"
       d="m 160.66239,40.387844 c 0,0 0.95215,2.037929 1.1526,3.457799 0.20046,1.419868 -2.85644,4.911077 -2.85644,4.911077"
       style="fill:none;stroke:#000000;stroke-width:0.42333332;stroke-linecap:round;stroke-linejoin:miter;stroke-miterlimit:4;stroke-dasharray:none;stroke-opacity:1" />
    <path
       id="path4750"
       d="m 160.00204,73.875928 c 0,0 1.88993,-3.071058 2.03162,-4.464843"
       style="fill:none;stroke:#000000;stroke-width:0.26458332;stroke-linecap:round;stroke-linejoin:miter;stroke-miterlimit:4;stroke-dasharray:none;stroke-opacity:1" />
    <path
       id="path4752"
       d="m 160.73437,70.946612 c 0,0 -0.56696,2.220611 -1.48828,3.732517"
       style="fill:none;stroke:#000000;stroke-width:0.22489583;stroke-linecap:round;stroke-linejoin:miter;stroke-miterlimit:4;stroke-dasharray:none;stroke-opacity:1" />
    <path
       id="path4754"
       d="m 159.43508,73.025483 c 0,0 -0.43012,2.640058 -1.06306,3.827008"
       style="fill:none;stroke:#000000;stroke-width:0.18520834;stroke-linecap:round;stroke-linejoin:miter;stroke-miterlimit:4;stroke-dasharray:none;stroke-opacity:1" />
    <path
       id="path4769"
       d="m 149.87139,37.898895 c 0,0 0.28397,1.06908 0.20045,1.904296"
       style="fill:none;stroke:#1358bb;stroke-width:0.82020831;stroke-linecap:round;stroke-linejoin:miter;stroke-miterlimit:4;stroke-dasharray:none;stroke-opacity:1" />
    <path
       id="path4773"
       d="m 149.87139,37.898895 c 0,0 0.20045,0.668173 0.20045,1.286235"
       style="fill:none;stroke:#000000;stroke-width:0.26458332;stroke-linecap:round;stroke-linejoin:miter;stroke-miterlimit:4;stroke-dasharray:none;stroke-opacity:1" />
    <path
       id="path4777"
       d="m 137.25261,26.853328 c 0.35435,0.283482 3.36635,2.48047 3.36635,2.48047"
       style="fill:none;stroke:#1358bb;stroke-width:1.37583327;stroke-linecap:round;stroke-linejoin:miter;stroke-miterlimit:4;stroke-dasharray:none;stroke-opacity:1" />
    <path
       id="path4775"
       d="m 137.12267,26.380858 c 0,0 0.21261,0.437036 1.08668,0.815012 0.87407,0.377975 1.01582,0.34254 1.79539,0.803198 0.77958,0.460658 1.16937,0.685083 1.16937,0.93313 0,0.248047 -0.45451,0.516857 -1.004,0.661458 -0.44885,0.118118 -0.44885,0.118118 -0.44885,0.118118"
       style="fill:none;stroke:#000000;stroke-width:0.50270832;stroke-linecap:round;stroke-linejoin:miter;stroke-miterlimit:4;stroke-dasharray:none;stroke-opacity:1" />
    <path
       id="path4783"
       d="m 134.54771,47.145924 c 0,0 1.12212,0.395695 1.94894,0.212614 0.68508,-0.153554 0.68508,-0.153554 0.68508,-0.153554"
       style="fill:none;stroke:#1358bb;stroke-width:0.87312502;stroke-linecap:round;stroke-linejoin:miter;stroke-miterlimit:4;stroke-dasharray:none;stroke-opacity:1" />
    <path
       id="path4785"
       d="m 134.54771,47.145924 c 0,0 0.86817,0.336637 1.50009,0.265766"
       style="fill:none;stroke:#000000;stroke-width:0.26458332px;stroke-linecap:round;stroke-linejoin:miter;stroke-opacity:1" />
    <path
       id="path4789"
       d="m 152.56064,33.940382 c 0,0 1.09849,-0.348446 2.008,-0.08859 0.9095,0.259858 1.2048,0.773671 1.38788,1.027623 0.18308,0.253953 0.59649,1.181174 0.63783,1.370163 0.0413,0.188987 0.30711,1.181175 0.30711,1.181175"
       style="fill:none;stroke:#1358bb;stroke-width:0.84666669;stroke-linecap:round;stroke-linejoin:miter;stroke-miterlimit:4;stroke-dasharray:none;stroke-opacity:1" />
    <path
       id="path4795"
       d="m 155.59626,37.808733 c -0.27167,0.17127 -0.53153,0.407503 -0.84454,0.330729 -0.31301,-0.07678 -0.63784,-0.2008 -0.63784,-0.2008 l -0.7087,-0.921319 -0.77367,-0.626023 c 0,0 -0.18899,0.135837 -0.16537,-0.230327 0.0236,-0.366165 0.0284,-0.836884 0.18899,-1.116211 0.17495,-0.304217 0.25986,-0.425225 0.53153,-0.555154 0.27167,-0.129928 0.67918,-0.02953 0.67918,-0.02953 l 1.21661,0.360257 0.55515,0.318918 0.36617,0.572871 0.37797,1.128021 0.0709,0.218517 c 0,0 -0.0945,0.07087 -0.25986,0.242142 -0.16536,0.17127 -0.59649,0.507907 -0.59649,0.507907 z"
       style="opacity:1;fill:#ffffff;fill-opacity:1;stroke:none;stroke-width:0.26458332px;stroke-linecap:butt;stroke-linejoin:miter;stroke-opacity:1" />
    <path
       id="path4799"
       d="m 154.11979,37.359886 c 0.3012,0.0118 0.24805,0.03544 0.39569,-0.0118 0.14765,-0.04725 0.24695,-0.108148 0.44885,-0.28348 0.24883,-0.21609 0.32483,-0.271671 0.53153,-0.649647 0.20671,-0.377976 0.32482,-0.838634 0.32482,-0.838634 l -0.6024,-1.004001 -1.17527,-0.253952 -0.61421,0.05906 c 0,0 -0.058,-0.03671 -0.23624,0.147647 -0.17127,0.177174 -0.40752,0.578766 -0.48428,0.708705 -0.0703,0.119022 -0.13583,0.330729 -0.14765,0.501999 -0.0118,0.17127 0.0354,0.366164 0.0354,0.366164 l 0.4016,0.460658 0.77958,0.584684 z"
       style="opacity:1;fill:#26d2ef;fill-opacity:1;stroke:none;stroke-width:0.26458332px;stroke-linecap:butt;stroke-linejoin:miter;stroke-opacity:1" />
    <path
       id="path4791"
       d="m 152.65513,34.324263 c 0,0 0.97447,-0.253952 1.54144,-0.183081 0.56696,0.07087 1.06306,0.466564 1.26386,0.73233 0.2008,0.265763 0.28348,0.37207 0.54924,0.779573 0.26576,0.407506 0.54925,1.771764 0.54925,1.771764"
       style="fill:none;stroke:#000000;stroke-width:0.44979167;stroke-linecap:round;stroke-linejoin:miter;stroke-miterlimit:4;stroke-dasharray:none;stroke-opacity:1" />
    <path
       id="path4793"
       d="m 152.89727,34.436476 c 0,0 1.08669,0.183081 1.31702,0.283482 0.23032,0.100399 0.93903,0.31301 1.18708,0.496094 0.24804,0.183081 0.37797,0.183081 0.37797,0.183081 l -0.56106,-0.826823 -1.03943,-0.413411 -1.19889,0.141742 z"
       style="fill:#000000;fill-opacity:1;stroke:none;stroke-width:0.26458332px;stroke-linecap:butt;stroke-linejoin:miter;stroke-opacity:1" />
    <path
       id="path4805"
       d="m 154.00154,34.55385 c 0.0459,0 0.56794,0.217157 0.56794,0.217157 l -0.51783,1.369756 -0.31321,0.325736 -0.57212,-0.175397 -0.1921,-0.246388 0.3132,-0.668174 z"
       style="fill:#ffffff;fill-opacity:1;stroke:none;stroke-width:0.26458332px;stroke-linecap:butt;stroke-linejoin:miter;stroke-opacity:1" />
    <path
       id="path4803"
       d="m 153.87208,34.520441 c 0,0 -0.47608,0.380024 -0.63477,0.622239 -0.1474,0.224976 -0.33826,0.609708 -0.38003,0.872802 0.008,0.263093 0.33145,0.380788 0.42179,0.42596 0.10022,0.05011 0.45519,0.212977 0.58465,0.07935 0.12946,-0.133632 0.52759,-0.82539 0.59718,-0.993907 0.0793,-0.192094 0.25475,-0.797631 0.25475,-0.797631"
       style="fill:none;stroke:#000000;stroke-width:0.5291667;stroke-linecap:round;stroke-linejoin:round;stroke-miterlimit:4;stroke-dasharray:none;stroke-opacity:1" />
    <path
       id="path4809"
       d="m 152.65684,36.984334 c 0,0 0.47607,0.208804 0.73499,0.496953 0.25891,0.28815 0.91873,1.215242 0.91873,1.215242"
       style="fill:none;stroke:#1358bb;stroke-width:0.74083334;stroke-linecap:round;stroke-linejoin:miter;stroke-miterlimit:4;stroke-dasharray:none;stroke-opacity:1" />
    <path
       id="path4807"
       d="m 152.48144,36.224286 c 0,0 0.34126,0.204539 0.81851,0.563772 0.47726,0.35923 0.80599,0.751694 0.90204,0.910386 0.096,0.158692 0.15869,0.430136 0.15869,0.430136"
       style="fill:none;stroke:#000000;stroke-width:0.58208334;stroke-linecap:round;stroke-linejoin:miter;stroke-miterlimit:4;stroke-dasharray:none;stroke-opacity:1" />
  </g>
</svg>
