<?xml version="1.0" encoding="UTF-8" standalone="no"?>
<!-- Created with Inkscape (http://www.inkscape.org/) -->
<svg id="svg2" xmlns="http://www.w3.org/2000/svg" xml:space="preserve" height="89.406" width="500" version="1.0" data-ember-extension="1"><path id="Sv-itch" d="m486.46 601.61l8.12 13.73v-6.38l-4.23-7.35h-3.89zm43.75 32.99h-3.73v-32.99h3.73v32.99zm21.43 0h-3.74v-29.69h-10.69v-3.3h25.12v3.3h-10.69v29.69zm80.64 0h-3.74v-15.17h-19.31v15.17h-3.74v-32.99h3.74v14.52h19.31v-14.52h3.74v32.99zm-37.46-23.48v-0.27c0-6.51-2.12-9.5-9.02-9.5h-3.08c-8.01 0-13.77 1.05-13.77 10.38v12.76c0 6.59 3.57 10.38 9.59 10.38h5.28c6.6 0 11.43-0.84 11.43-8.41v-2.29h-3.74v1.86c0 4.7-1.84 5.54-7.82 5.54h-4.45c-6.24 0-6.55-3.39-6.55-10.91v-9.06c0-6.02 2.73-6.95 10.46-6.95h2.12c4.84 0 5.81 1.71 5.81 6.33v0.14h3.74zm-142.6-9.77c-8.14 0-12.19 0.79-12.19 9.59 0 8.71 5.59 7.92 12.1 8.44 6.03 0.49 8.84-0.57 8.84 5.72 0 6.47-1.93 6.47-8.97 6.47-6.6 0-8.22 0-8.31-6.1h-3.81c-0.26 8.47 4.08 9.4 12.12 9.4 8.31 0 12.71-0.31 12.71-9.64 0-8.92-3.95-8.71-11.79-9.15-6.16-0.17-9.14 0.36-9.14-5.93 0-4.57 1-5.5 8.31-5.5 6.48 0 7.9 0.19 8.21 4.81h3.82c-0.1-7.83-5.1-8.11-11.9-8.11m35.35 26.43l-14.01-26.17h-4.16l18.25 34.15 6.93-13.14v-7.28l-6.83 12.44h-0.18z" fill-rule="evenodd" transform="matrix(2.5986 0 0 2.5986 -1143.1 -1562.7)" fill="#014489"/><path id="v" d="m402.16 360.6l-6.5-10.98v5.1l3.4 5.88h3.1zm-0.89-20.94l11.21 20.94h3.33l-14.6-27.32-5.55 10.51v5.83l5.47-9.96h0.14z" fill-rule="evenodd" transform="matrix(3.2483 0 0 -3.2483 -1143.1 1172)" fill="#f39904"/></svg>