<svg xmlns="http://www.w3.org/2000/svg" width="510.24" height="510.24" viewBox="0 0 510.24 510.24"><defs><style>.a{fill:#018285;}.b{fill:#fff;}</style></defs><title>verkkotunnus_registrar</title><path class="a" d="M255.12,0C114.45,0,0,114.45,0,255.12S114.45,510.24,255.12,510.24,510.24,395.79,510.24,255.12,395.77,0,255.12,0"/><path class="b" d="M343.88,271.65H300.64V131.31h43.24Z"/><rect class="b" x="300.64" y="70.09" width="43.35" height="34.96"/><path class="b" d="M236.09,121.38q0-8.51,4.11-14T253.52,102a78.09,78.09,0,0,1,20,3.1v-35a123.84,123.84,0,0,0-24.67-2.42q-29.35,0-42.67,12.48t-13.33,39.56v11.62L169,142.93v20.84h23.82V271.65h43.24V163.78h37.43V131.31H236.09Z"/><circle class="b" cx="151.83" cy="254.46" r="17.2"/><rect class="b" x="44.12" y="299.66" width="422" height="10"/><path class="b" d="M106.38,383.37l-7.5-12.83a13.67,13.67,0,0,1-1.55.06h-9.8v12.77H79.23V340h18.1q8.43,0,13,3.91t4.59,11a16.32,16.32,0,0,1-2.2,8.68,13.47,13.47,0,0,1-6.42,5.39l9.55,14.38ZM87.53,363.29h9.8q4.71,0,7.19-2a7.42,7.42,0,0,0,2.48-6.08,7.17,7.17,0,0,0-2.48-6q-2.48-2-7.19-2h-9.8Z"/><path class="b" d="M124.05,340h31.81v7.25h-23.5V358h21.08v7.25H132.36v10.91H156.6v7.25H124.05Z"/><path class="b" d="M194.48,361.8h7.25v16.49a29,29,0,0,1-8.06,4.12,28.21,28.21,0,0,1-9.11,1.58,23.12,23.12,0,0,1-11.62-3,22.22,22.22,0,0,1-8.28-8.09,21.74,21.74,0,0,1-3-11.32,21.09,21.09,0,0,1,3.1-11.25,22.34,22.34,0,0,1,8.46-8,24.26,24.26,0,0,1,11.87-2.95,26.29,26.29,0,0,1,9.18,1.67,24.4,24.4,0,0,1,7.81,4.59l-4.71,6.14a17.89,17.89,0,0,0-5.73-3.66,17.49,17.49,0,0,0-6.54-1.3,15,15,0,0,0-7.53,2,14.38,14.38,0,0,0-5.42,5.36,15,15,0,0,0,0,14.94,14.9,14.9,0,0,0,5.43,5.39,14.75,14.75,0,0,0,7.56,2,16.73,16.73,0,0,0,4.68-.71,20.81,20.81,0,0,0,4.68-2Z"/><path class="b" d="M211.35,340h8.31v43.4h-8.31Z"/><path class="b" d="M250.75,348a20.68,20.68,0,0,0-6.17-1.12,8.64,8.64,0,0,0-4.71,1.12,3.5,3.5,0,0,0-1.74,3.1,4.08,4.08,0,0,0,1.21,3,9.44,9.44,0,0,0,3,2,48,48,0,0,0,5,1.71,54.61,54.61,0,0,1,7.22,2.6,12.9,12.9,0,0,1,4.8,3.84,10.58,10.58,0,0,1,2,6.7,11.45,11.45,0,0,1-2.14,6.91,13.4,13.4,0,0,1-5.89,4.5,22.34,22.34,0,0,1-8.59,1.55,27,27,0,0,1-9.92-1.89,28.15,28.15,0,0,1-8.43-5.05l3.47-7.07a25.36,25.36,0,0,0,7.38,4.77,19.61,19.61,0,0,0,7.63,1.74,9.68,9.68,0,0,0,5.46-1.33,4.39,4.39,0,0,0,.77-6.7,9,9,0,0,0-3.07-2q-1.86-.74-5.08-1.67a59.79,59.79,0,0,1-7.19-2.54,12.48,12.48,0,0,1-4.77-3.75,10.34,10.34,0,0,1-2-6.6,11.07,11.07,0,0,1,2-6.6,13,13,0,0,1,5.7-4.37,21.88,21.88,0,0,1,8.53-1.55,28.84,28.84,0,0,1,8.34,1.24,28.21,28.21,0,0,1,7.35,3.35l-3.35,7.25A31.42,31.42,0,0,0,250.75,348Z"/><path class="b" d="M264.42,340h35.4v7.38H286.3v36h-8.37v-36H264.42Z"/><path class="b" d="M332.87,383.37l-7.5-12.83a13.67,13.67,0,0,1-1.55.06H314v12.77h-8.31V340h18.1q8.43,0,13,3.91t4.59,11a16.32,16.32,0,0,1-2.2,8.68A13.47,13.47,0,0,1,332.8,369l9.55,14.38ZM314,363.29h9.8q4.71,0,7.19-2a7.42,7.42,0,0,0,2.48-6.08,7.17,7.17,0,0,0-2.48-6q-2.48-2-7.19-2H314Z"/><path class="b" d="M382.65,383.37l-3.84-9.18H357.6l-3.84,9.18h-8.62l19-43.4h8.62l18.79,43.4Zm-22.07-16.31h15.25l-7.56-18.23Z"/><path class="b" d="M424,383.37l-7.5-12.83a13.67,13.67,0,0,1-1.55.06h-9.8v12.77h-8.31V340H415q8.43,0,13,3.91t4.59,11a16.32,16.32,0,0,1-2.2,8.68,13.47,13.47,0,0,1-6.42,5.39l9.55,14.38Zm-18.85-20.09H415q4.71,0,7.19-2a7.42,7.42,0,0,0,2.48-6.08,7.17,7.17,0,0,0-2.48-6q-2.48-2-7.19-2h-9.8Z"/></svg>